<svg width="170" height="214" viewBox="0 0 170 214" fill="none" xmlns="http://www.w3.org/2000/svg">
<path d="M51.209 67.5466V34.2445H43.8015V7.5H123.802V34.2445H117.876V67.5466C117.876 67.5466 124.964 72.4531 132.691 78.8186C142.886 87.2169 153.16 99.1492 157.877 111.506C163.668 126.679 163.225 134.297 160.84 148.651C158.454 163.006 154.838 171.265 146.025 182.825C137.001 194.661 116.192 206.5 116.192 206.5H54.3747C54.3747 206.5 40.6675 198.358 31.9496 190.254C23.2316 182.15 15.6926 170.363 11.2085 156.08C6.86459 142.244 7.02304 136.765 8.24564 121.907C11.2085 111.506 11.8143 108.235 17.1345 99.6198C26.093 85.1133 51.209 67.5466 51.209 67.5466Z" stroke="#FFDF00" stroke-width="15"/>
</svg>
