<svg width="417" height="417" viewBox="0 0 417 417" fill="none" xmlns="http://www.w3.org/2000/svg">
<rect width="417" height="417" fill="black"/>
<path d="M136.562 155.156C133.213 163.555 134.058 169.622 136.562 178.311C138.994 186.745 140.26 194.07 148.366 197.438C153.688 199.648 157.409 198.198 163.121 197.438C171.57 196.313 176.603 194.992 183.778 190.391C192.13 185.035 197.508 180.724 200.5 171.264C202.752 164.142 203.335 159.047 200.5 152.136C198.399 147.014 195.917 144.588 191.647 141.063C178.017 129.81 159.94 130.71 146.399 142.069C141.501 146.179 138.931 149.218 136.562 155.156Z" stroke="#FFDF00" stroke-width="15"/>
<path d="M289.875 155.156C293.225 163.555 292.38 169.622 289.875 178.311C287.444 186.745 286.177 194.07 278.071 197.438C272.75 199.648 269.028 198.198 263.316 197.438C254.867 196.313 249.834 194.992 242.66 190.391C234.308 185.035 228.929 180.724 225.938 171.264C223.685 164.142 223.103 159.047 225.938 152.136C228.039 147.014 230.521 144.588 234.79 141.063C248.42 129.81 266.497 130.71 280.038 142.069C284.937 146.179 287.506 149.218 289.875 155.156Z" stroke="#FFDF00" stroke-width="15"/>
<path d="M235.336 229.331C221.494 218.077 203.73 218.37 189.655 229.331C185.514 232.556 183.351 234.83 180.718 239.37C172.57 253.421 179.303 266.06 186.676 280.533C189.234 285.555 190.379 288.87 194.621 292.581C205.128 301.774 220.372 302.325 230.371 292.581C234.261 288.79 235.058 285.471 237.322 280.533C244.254 265.416 251.86 252.613 243.28 238.366C240.856 234.341 238.981 232.295 235.336 229.331Z" stroke="#FFDF00" stroke-width="15"/>
<path d="M118.424 251.826L132.321 243.882L114.454 203.167C114.454 203.167 111.774 179.922 114.454 165.43C116.773 152.887 125.372 134.646 125.372 134.646C125.372 134.646 134.901 111.974 146.217 101.875C159.434 90.0805 170.633 87.9231 187.907 83.9999C209.076 79.1922 222.63 78.0044 243.494 83.9999C258.158 88.2139 266.608 91.9944 278.235 101.875C290.292 112.121 294.904 120.533 302.058 134.646C307.825 146.023 310.658 152.887 312.977 165.43C315.656 179.922 312.977 203.167 312.977 203.167L294.117 243.882L308.014 251.826L331.5 226.5L385.438 253.812L378.489 268.708L385.438 273.673L339.777 355.104L334.814 354.111L323.895 370L266.324 337.229L279.228 308.43L260.368 299.493L227.612 319.354H194.855L166.07 299.493L146.217 310.417L161.106 338.222L99.5643 370L91.6234 354.111L86.6603 357.09L41 271.687L47.9483 266.722L41 253.812L96.5 226.5L118.424 251.826Z" stroke="#FFDF00" stroke-width="15"/>
<mask id="path-6-inside-1_106_874" fill="white">
<path d="M201.544 258.5C201.544 272.031 206.134 283 202.764 283C199.394 283 193 272.031 193 258.5C193 244.969 199.394 234 202.764 234C206.134 234 201.544 244.969 201.544 258.5Z"/>
</mask>
<path d="M201.544 258.5C201.544 272.031 206.134 283 202.764 283C199.394 283 193 272.031 193 258.5C193 244.969 199.394 234 202.764 234C206.134 234 201.544 244.969 201.544 258.5Z" fill="#FFDF00"/>
<path d="M201.544 258.5H186.544C186.544 266.748 187.954 274.212 188.615 278.249C189.044 280.865 188.985 281.088 189.004 280.548C189.009 280.413 189.023 277.756 190.838 274.75C191.899 272.992 193.588 271.104 196.056 269.742C198.499 268.393 200.904 268 202.764 268V283V298C208.222 298 213.497 295.263 216.521 290.254C218.73 286.595 218.938 282.976 218.986 281.601C219.092 278.582 218.518 275.216 218.22 273.399C217.429 268.569 216.544 263.783 216.544 258.5H201.544ZM202.764 283V268C206.321 268 208.721 269.381 209.606 269.961C210.609 270.619 211.101 271.192 211.157 271.256C211.28 271.399 210.874 270.934 210.268 269.606C209.094 267.027 208 263.015 208 258.5H193H178C178 267.516 180.103 275.754 182.968 282.042C184.382 285.147 186.206 288.271 188.476 290.893C189.605 292.197 191.15 293.733 193.148 295.043C195.027 296.277 198.365 298 202.764 298V283ZM193 258.5H208C208 253.985 209.094 249.973 210.268 247.394C210.874 246.066 211.28 245.601 211.157 245.744C211.101 245.808 210.609 246.381 209.606 247.039C208.721 247.62 206.321 249 202.764 249V234V219C198.365 219 195.027 220.723 193.148 221.957C191.15 223.267 189.605 224.803 188.476 226.107C186.206 228.729 184.382 231.853 182.968 234.958C180.103 241.246 178 249.484 178 258.5H193ZM202.764 234V249C200.904 249 198.499 248.607 196.056 247.258C193.588 245.896 191.899 244.008 190.838 242.25C189.023 239.244 189.009 236.587 189.004 236.452C188.985 235.912 189.044 236.135 188.615 238.751C187.954 242.788 186.544 250.252 186.544 258.5H201.544H216.544C216.544 253.217 217.429 248.431 218.22 243.601C218.518 241.784 219.092 238.418 218.986 235.399C218.938 234.024 218.73 230.405 216.521 226.746C213.497 221.737 208.222 219 202.764 219V234Z" fill="#FFDF00" mask="url(#path-6-inside-1_106_874)"/>
<mask id="path-8-inside-2_106_874" fill="white">
<path d="M222.456 258.5C222.456 272.031 217.866 283 221.236 283C224.606 283 231 272.031 231 258.5C231 244.969 224.606 234 221.236 234C217.866 234 222.456 244.969 222.456 258.5Z"/>
</mask>
<path d="M222.456 258.5C222.456 272.031 217.866 283 221.236 283C224.606 283 231 272.031 231 258.5C231 244.969 224.606 234 221.236 234C217.866 234 222.456 244.969 222.456 258.5Z" fill="#FFDF00"/>
<path d="M222.456 258.5H237.456C237.456 266.748 236.046 274.212 235.385 278.249C234.956 280.865 235.015 281.088 234.996 280.548C234.991 280.413 234.977 277.756 233.162 274.75C232.101 272.992 230.412 271.104 227.944 269.742C225.501 268.393 223.096 268 221.236 268V283V298C215.778 298 210.503 295.263 207.479 290.254C205.27 286.595 205.062 282.976 205.014 281.601C204.908 278.582 205.482 275.216 205.78 273.399C206.571 268.569 207.456 263.783 207.456 258.5H222.456ZM221.236 283V268C217.679 268 215.279 269.381 214.394 269.961C213.391 270.619 212.899 271.192 212.843 271.256C212.72 271.399 213.126 270.934 213.732 269.606C214.906 267.027 216 263.015 216 258.5H231H246C246 267.516 243.897 275.754 241.032 282.042C239.618 285.147 237.794 288.271 235.524 290.893C234.395 292.197 232.85 293.733 230.852 295.043C228.973 296.277 225.635 298 221.236 298V283ZM231 258.5H216C216 253.985 214.906 249.973 213.732 247.394C213.126 246.066 212.72 245.601 212.843 245.744C212.899 245.808 213.391 246.381 214.394 247.039C215.279 247.62 217.679 249 221.236 249V234V219C225.635 219 228.973 220.723 230.852 221.957C232.85 223.267 234.395 224.803 235.524 226.107C237.794 228.729 239.618 231.853 241.032 234.958C243.897 241.246 246 249.484 246 258.5H231ZM221.236 234V249C223.096 249 225.501 248.607 227.944 247.258C230.412 245.896 232.101 244.008 233.162 242.25C234.977 239.244 234.991 236.587 234.996 236.452C235.015 235.912 234.956 236.135 235.385 238.751C236.046 242.788 237.456 250.252 237.456 258.5H222.456H207.456C207.456 253.217 206.571 248.431 205.78 243.601C205.482 241.784 204.908 238.418 205.014 235.399C205.062 234.024 205.27 230.405 207.479 226.746C210.503 221.737 215.778 219 221.236 219V234Z" fill="#FFDF00" mask="url(#path-8-inside-2_106_874)"/>
<mask id="path-10-inside-3_106_874" fill="white">
<ellipse cx="212.5" cy="259.5" rx="4.5" ry="29.5"/>
</mask>
<ellipse cx="212.5" cy="259.5" rx="4.5" ry="29.5" fill="#FFDF00"/>
<path d="M217 259.5H202C202 267.132 201.522 273.714 200.854 278.098C200.691 279.165 200.529 280.015 200.384 280.658C200.232 281.332 200.135 281.609 200.141 281.593C200.148 281.575 200.217 281.382 200.371 281.069C200.512 280.78 200.829 280.176 201.381 279.436C202.089 278.486 205.678 274 212.5 274V289V304C219.944 304 224.139 299.101 225.433 297.366C227.002 295.261 227.881 293.104 228.362 291.771C229.388 288.926 230.048 285.652 230.51 282.622C231.47 276.328 232 268.161 232 259.5H217ZM212.5 289V274C219.322 274 222.911 278.486 223.619 279.436C224.171 280.176 224.488 280.78 224.629 281.069C224.783 281.382 224.852 281.575 224.859 281.593C224.865 281.609 224.768 281.332 224.616 280.658C224.471 280.015 224.309 279.165 224.146 278.098C223.478 273.714 223 267.132 223 259.5H208H193C193 268.161 193.53 276.328 194.49 282.622C194.952 285.652 195.612 288.926 196.638 291.771C197.119 293.104 197.998 295.261 199.567 297.366C200.861 299.101 205.056 304 212.5 304V289ZM208 259.5H223C223 251.868 223.478 245.286 224.146 240.902C224.309 239.835 224.471 238.985 224.616 238.342C224.768 237.668 224.865 237.391 224.859 237.407C224.852 237.425 224.783 237.618 224.629 237.931C224.488 238.22 224.171 238.824 223.619 239.564C222.911 240.514 219.322 245 212.5 245V230V215C205.056 215 200.861 219.899 199.567 221.634C197.998 223.739 197.119 225.896 196.638 227.229C195.612 230.074 194.952 233.348 194.49 236.378C193.53 242.672 193 250.839 193 259.5H208ZM212.5 230V245C205.678 245 202.089 240.514 201.381 239.564C200.829 238.824 200.512 238.22 200.371 237.931C200.217 237.618 200.148 237.425 200.141 237.407C200.135 237.391 200.232 237.668 200.384 238.342C200.529 238.985 200.691 239.835 200.854 240.902C201.522 245.286 202 251.868 202 259.5H217H232C232 250.839 231.47 242.672 230.51 236.378C230.048 233.348 229.388 230.074 228.362 227.229C227.881 225.896 227.002 223.739 225.433 221.634C224.139 219.899 219.944 215 212.5 215V230Z" fill="#FFDF00" mask="url(#path-10-inside-3_106_874)"/>
</svg>
