<svg width="1491" height="303" viewBox="0 0 1491 303" fill="none" xmlns="http://www.w3.org/2000/svg">
<rect y="14.5" width="1092" height="278" fill="black"/>
<path d="M-367 290.409C-367 290.409 -240.801 278.092 -189.065 219.723C-94.0031 112.474 -25.6785 15.217 103.432 12.5367C232.262 9.86223 315.492 153.91 403.241 234.353C464.12 290.164 564.114 290.416 564.114 290.416" stroke="#FFDF00" stroke-width="25" stroke-linecap="round"/>
<path d="M-367 12.5438C-367 12.5438 -240.801 24.8614 -189.065 83.2303C-94.0031 190.479 -25.6785 287.736 103.432 290.416C232.262 293.091 315.492 149.044 403.241 68.5997C464.12 12.7889 568.989 12.5444 568.989 12.5444" stroke="#FFDF00" stroke-width="25" stroke-linecap="round"/>
<path d="M93.6823 49.105V258.728" stroke="#FFDF00" stroke-width="25" stroke-linecap="round"/>
<path d="M171.681 63.73V236.791" stroke="#FFDF00" stroke-width="25" stroke-linecap="round"/>
<path d="M237.493 119.791V183.165" stroke="#FFDF00" stroke-width="25" stroke-linecap="round"/>
<path d="M22.9955 63.73V234.354" stroke="#FFDF00" stroke-width="25" stroke-linecap="round"/>
<path d="M412.991 114.917V185.603" stroke="#FFDF00" stroke-width="25" stroke-linecap="round"/>
<path d="M481.24 61.2925V246.541" stroke="#FFDF00" stroke-width="25" stroke-linecap="round"/>
<path d="M554.365 46.6675V253.853" stroke="#FFDF00" stroke-width="25" stroke-linecap="round"/>
<path d="M556.802 290.452C556.802 290.452 670.814 278.134 722.55 219.765C817.611 112.517 885.936 15.2595 1015.05 12.5792C1143.88 9.90471 1227.11 153.952 1314.86 234.396C1375.73 290.207 1478.17 290.452 1478.17 290.452" stroke="#FFDF00" stroke-width="25" stroke-linecap="round"/>
<path d="M561.677 12.5863C561.677 12.5863 670.814 24.9039 722.55 83.2727C817.612 190.522 885.936 287.779 1015.05 290.459C1143.88 293.133 1227.11 149.086 1314.86 68.6422C1375.73 12.8314 1478.17 12.5863 1478.17 12.5863" stroke="#FFDF00" stroke-width="25" stroke-linecap="round"/>
<path d="M1005.3 49.1499V258.773" stroke="#FFDF00" stroke-width="25" stroke-linecap="round"/>
<path d="M1083.3 63.7749V236.836" stroke="#FFDF00" stroke-width="25" stroke-linecap="round"/>
<path d="M1149.11 119.791V183.165" stroke="#FFDF00" stroke-width="25" stroke-linecap="round"/>
<path d="M934.61 63.7749V234.399" stroke="#FFDF00" stroke-width="25" stroke-linecap="round"/>
<path d="M866.361 124.666V185.604" stroke="#FFDF00" stroke-width="25" stroke-linecap="round"/>
<path d="M629.926 66.2124V231.961" stroke="#FFDF00" stroke-width="25" stroke-linecap="round"/>
<path d="M700.613 117.399V178.337" stroke="#FFDF00" stroke-width="25" stroke-linecap="round"/>
<path d="M1324.61 114.917V185.603" stroke="#FFDF00" stroke-width="25" stroke-linecap="round"/>
<path d="M1392.85 61.3374V246.586" stroke="#FFDF00" stroke-width="25" stroke-linecap="round"/>
<path d="M1465.98 46.7124V253.898" stroke="#FFDF00" stroke-width="25" stroke-linecap="round"/>
</svg>
