<svg width="1499" height="303" viewBox="0 0 1499 303" fill="none" xmlns="http://www.w3.org/2000/svg">
<rect y="12.5" width="1087" height="278" fill="black"/>
<path d="M-359 290.409C-359 290.409 -232.801 278.092 -181.065 219.723C-86.0031 112.474 -17.6785 15.217 111.432 12.5367C240.262 9.86223 323.492 153.91 411.241 234.353C472.12 290.164 572.114 290.416 572.114 290.416" stroke="#FFDF00" stroke-width="25" stroke-linecap="round"/>
<path d="M-359 12.5438C-359 12.5438 -232.801 24.8614 -181.065 83.2303C-86.0031 190.479 -17.6785 287.736 111.432 290.416C240.262 293.091 323.492 149.044 411.241 68.5997C472.12 12.7889 576.989 12.5444 576.989 12.5444" stroke="#FFDF00" stroke-width="25" stroke-linecap="round"/>
<path d="M101.682 49.105V258.728" stroke="#FFDF00" stroke-width="25" stroke-linecap="round"/>
<path d="M179.681 63.73V236.791" stroke="#FFDF00" stroke-width="25" stroke-linecap="round"/>
<path d="M245.493 119.791V183.165" stroke="#FFDF00" stroke-width="25" stroke-linecap="round"/>
<path d="M30.9955 63.73V234.354" stroke="#FFDF00" stroke-width="25" stroke-linecap="round"/>
<path d="M420.991 114.917V185.603" stroke="#FFDF00" stroke-width="25" stroke-linecap="round"/>
<path d="M489.24 61.2925V246.541" stroke="#FFDF00" stroke-width="25" stroke-linecap="round"/>
<path d="M562.365 46.6675V253.853" stroke="#FFDF00" stroke-width="25" stroke-linecap="round"/>
<path d="M564.802 290.452C564.802 290.452 678.814 278.134 730.55 219.765C825.611 112.517 893.936 15.2595 1023.05 12.5792C1151.88 9.90471 1235.11 153.952 1322.86 234.396C1383.73 290.207 1486.17 290.452 1486.17 290.452" stroke="#FFDF00" stroke-width="25" stroke-linecap="round"/>
<path d="M569.677 12.5863C569.677 12.5863 678.814 24.9039 730.55 83.2727C825.612 190.522 893.936 287.779 1023.05 290.459C1151.88 293.133 1235.11 149.086 1322.86 68.6422C1383.73 12.8314 1486.17 12.5863 1486.17 12.5863" stroke="#FFDF00" stroke-width="25" stroke-linecap="round"/>
<path d="M1013.3 49.1499V258.773" stroke="#FFDF00" stroke-width="25" stroke-linecap="round"/>
<path d="M1091.3 63.7749V236.836" stroke="#FFDF00" stroke-width="25" stroke-linecap="round"/>
<path d="M1157.11 119.791V183.165" stroke="#FFDF00" stroke-width="25" stroke-linecap="round"/>
<path d="M942.61 63.7749V234.399" stroke="#FFDF00" stroke-width="25" stroke-linecap="round"/>
<path d="M874.361 124.666V185.604" stroke="#FFDF00" stroke-width="25" stroke-linecap="round"/>
<path d="M637.926 66.2124V231.961" stroke="#FFDF00" stroke-width="25" stroke-linecap="round"/>
<path d="M708.613 117.399V178.337" stroke="#FFDF00" stroke-width="25" stroke-linecap="round"/>
<path d="M1332.61 114.917V185.603" stroke="#FFDF00" stroke-width="25" stroke-linecap="round"/>
<path d="M1400.85 61.3374V246.586" stroke="#FFDF00" stroke-width="25" stroke-linecap="round"/>
<path d="M1473.98 46.7124V253.898" stroke="#FFDF00" stroke-width="25" stroke-linecap="round"/>
</svg>
