<svg width="412" height="417" viewBox="0 0 412 417" fill="none" xmlns="http://www.w3.org/2000/svg">
<rect width="411.258" height="417" fill="#FFDF00"/>
<path d="M248.203 240.145C266.397 255.301 302.489 266.837 302.489 266.837L226.509 367.766C226.509 367.766 204.541 342.996 189.16 328.463C173.987 314.127 148.435 293.891 148.435 293.891C148.435 293.891 50.3253 222.33 49.6772 218.259C49.029 214.187 50.0886 209.784 53.642 206.552C56.4714 203.979 57.9173 202.901 62.8427 203.32C67.7681 203.738 103.821 234.902 103.821 234.902L109.166 230.339C109.166 230.339 55.806 192.688 54.1725 188.533C52.5389 184.377 53.3997 181.011 56.0834 177.655C58.7998 174.259 62.497 172.177 66.3531 173.51C70.2093 174.843 119.629 212.159 119.629 212.159L123.906 208.508C123.906 208.508 61.9336 167.115 60.3008 162.96C58.6679 158.805 59.1257 152.555 63.4491 149.177C67.1682 146.27 71.4957 147.851 75.4361 148.188C79.3764 148.525 135.27 191.409 135.27 191.409L138.645 186.678C138.645 186.678 88.0722 151.269 86.354 148.112C84.6358 144.955 84.6884 138.65 88.4333 135.242C91.4319 132.514 92.6246 132.586 98.5347 133.09C104.445 133.594 192.621 205.315 194.842 202.493C197.064 199.671 185.861 179.65 185.861 179.65C185.861 179.65 160.616 161.449 159.799 159.371C158.983 157.292 159.379 152.108 161.71 148.494C164.117 144.762 167.224 141.937 171.164 142.272C175.103 142.607 199.447 159.729 214.843 177.095C223.093 196.864 220.472 209.138 232.638 224.773C237.893 231.525 241.645 234.683 248.203 240.145Z" stroke="black" stroke-width="15"/>
<path d="M335.573 236.545C343.424 259.041 368.409 287.784 368.409 287.784L252.226 334.606C252.226 334.606 246.032 301.898 240.268 281.406C234.581 261.191 223.022 230.497 223.022 230.497C223.022 230.497 175.522 117.905 177.035 114.077C178.549 110.248 181.691 107.027 186.368 106.113C190.093 105.386 191.876 105.217 195.872 108.149C199.869 111.081 214.852 156.627 214.852 156.627L221.738 155.508C221.738 155.508 195.258 95.3595 195.972 90.9445C196.686 86.5295 199.132 84.0936 203.129 82.6191C207.175 81.1265 211.392 81.2734 214.01 84.4306C216.629 87.5878 239.911 145.391 239.911 145.391L245.419 144.495C245.419 144.495 213.481 76.6401 214.196 72.2255C214.91 67.8109 218.475 62.6933 223.885 62.0558C228.539 61.5074 231.435 65.1233 234.631 67.4703C237.827 69.8173 263.814 135.775 263.814 135.775L269.101 133.483C269.101 133.483 243.865 76.7121 244 73.1086C244.134 69.5051 247.382 64.1274 252.312 63.1629C256.26 62.3906 257.243 63.0753 262.037 66.5947C266.832 70.1142 305.763 177.654 309.094 176.395C312.426 175.137 313.019 152.124 313.019 152.124C313.019 152.124 300.688 123.335 301.046 121.127C301.404 118.918 304.374 114.682 308.202 112.801C312.154 110.86 316.244 110.061 319.44 112.406C322.637 114.751 334.745 142.145 339.084 165.073C336.094 186.329 327.621 195.48 330.079 215.237C331.14 223.771 332.743 228.437 335.573 236.545Z" fill="#FFDF00" stroke="black" stroke-width="15"/>
</svg>
