<svg width="417" height="417" viewBox="0 0 417 417" fill="none" xmlns="http://www.w3.org/2000/svg">
<rect width="417" height="417" fill="black"/>
<path d="M162.004 309.424V283.23H166.749V302.307L182.811 283.23H187.111V309.424H182.366V290.347L166.354 309.424H162.004ZM174.261 279.82C171.856 279.82 169.961 279.244 168.578 278.09C167.227 276.904 166.535 275.208 166.502 273H169.714C169.747 274.252 170.159 275.24 170.95 275.965C171.774 276.69 172.861 277.053 174.212 277.053C175.563 277.053 176.65 276.69 177.474 275.965C178.297 275.24 178.726 274.252 178.759 273H182.07C182.037 275.208 181.328 276.904 179.945 278.09C178.561 279.244 176.666 279.82 174.261 279.82Z" fill="#FFDF00"/>
<path d="M127.689 309.424V283.23H132.433V302.307L148.496 283.23H152.795V309.424H148.051V290.347L132.038 309.424H127.689Z" fill="#FFDF00"/>
<path d="M112.76 307.2V287.382H101.393L101.146 292.423C101.08 294.07 100.965 295.668 100.8 297.217C100.668 298.733 100.438 300.133 100.108 301.418C99.8116 302.703 99.3668 303.757 98.7737 304.581C98.1806 305.405 97.3899 305.915 96.4014 306.113L91.7063 305.273C92.7277 305.306 93.5514 304.976 94.1774 304.284C94.8034 303.559 95.2812 302.571 95.6107 301.319C95.9731 300.067 96.2367 298.65 96.4014 297.069C96.5662 295.454 96.698 293.79 96.7968 292.077L97.1922 283.23H117.505V307.2H112.76ZM90.6685 315.503V305.273H121.508V315.503H117.06V309.424H95.1659V315.503H90.6685Z" fill="#FFDF00"/>
<path d="M81.8284 309.424V303.889L81.5813 302.851V293.411C81.5813 291.401 80.9882 289.853 79.8021 288.765C78.6489 287.645 76.9027 287.085 74.5633 287.085C73.0148 287.085 71.4992 287.349 70.0165 287.876C68.5338 288.37 67.2818 289.045 66.2604 289.902L64.2835 286.344C65.6344 285.256 67.2488 284.433 69.1269 283.873C71.0379 283.279 73.0312 282.983 75.107 282.983C78.6983 282.983 81.466 283.856 83.4099 285.602C85.3539 287.349 86.3258 290.017 86.3258 293.609V309.424H81.8284ZM73.2289 309.72C71.285 309.72 69.5717 309.391 68.089 308.732C66.6393 308.073 65.5191 307.167 64.7283 306.014C63.9376 304.828 63.5422 303.493 63.5422 302.01C63.5422 300.594 63.8717 299.309 64.5306 298.156C65.2225 297.002 66.3263 296.08 67.8419 295.388C69.3905 294.696 71.4662 294.35 74.0691 294.35H82.372V297.76H74.2668C71.8945 297.76 70.2965 298.156 69.4728 298.946C68.6491 299.737 68.2373 300.693 68.2373 301.813C68.2373 303.098 68.748 304.136 69.7694 304.926C70.7908 305.684 72.2075 306.063 74.0197 306.063C75.7989 306.063 77.3474 305.668 78.6654 304.877C80.0162 304.086 80.9882 302.933 81.5813 301.417L82.5203 304.679C81.8943 306.228 80.7905 307.463 79.209 308.386C77.6275 309.276 75.6341 309.72 73.2289 309.72Z" fill="#FFDF00"/>
<path d="M32 309.424V274.829H45.4923C48.5235 274.829 51.1099 275.306 53.2516 276.262C55.3932 277.217 57.0406 278.601 58.1938 280.413C59.347 282.225 59.9236 284.384 59.9236 286.888C59.9236 289.392 59.347 291.55 58.1938 293.362C57.0406 295.141 55.3932 296.525 53.2516 297.513C51.1099 298.469 48.5235 298.947 45.4923 298.947H34.7182L36.9422 296.624V309.424H32ZM36.9422 297.118L34.7182 294.647H45.344C48.507 294.647 50.8958 293.971 52.5102 292.621C54.1576 291.27 54.9813 289.359 54.9813 286.888C54.9813 284.417 54.1576 282.506 52.5102 281.155C50.8958 279.804 48.507 279.128 45.344 279.128H34.7182L36.9422 276.657V297.118Z" fill="#FFDF00"/>
<path d="M201.899 253.508V237.321L199.815 233.314V203.503C199.815 198.695 198.319 195.009 195.327 192.444C192.442 189.773 187.795 188.437 181.384 188.437C177.217 188.437 172.996 189.132 168.722 190.521C164.448 191.803 160.815 193.62 157.823 195.97L147.566 175.295C152.481 172.09 158.358 169.632 165.196 167.922C172.141 166.106 179.033 165.198 185.871 165.198C199.975 165.198 210.874 168.457 218.567 174.974C226.367 181.385 230.267 191.483 230.267 205.266V253.508H201.899ZM176.255 254.951C169.31 254.951 163.433 253.776 158.625 251.425C153.817 249.074 150.13 245.869 147.566 241.808C145.108 237.748 143.88 233.207 143.88 228.185C143.88 222.843 145.215 218.248 147.886 214.402C150.665 210.448 154.885 207.457 160.548 205.426C166.211 203.289 173.53 202.221 182.506 202.221H203.021V218.088H186.673C181.758 218.088 178.285 218.889 176.255 220.492C174.332 222.095 173.37 224.232 173.37 226.903C173.37 229.574 174.385 231.711 176.415 233.314C178.445 234.917 181.223 235.718 184.749 235.718C188.062 235.718 191.053 234.917 193.725 233.314C196.503 231.604 198.533 229.04 199.815 225.621L203.982 236.84C202.379 242.824 199.227 247.365 194.526 250.463C189.932 253.455 183.841 254.951 176.255 254.951Z" fill="#EAFF00"/>
<path d="M32.4333 253.508V141.317H83.7208C93.9783 141.317 102.793 142.973 110.166 146.285C117.645 149.598 123.415 154.406 127.475 160.71C131.536 166.907 133.566 174.28 133.566 182.828C133.566 191.269 131.536 198.588 127.475 204.785C123.415 210.876 117.645 215.577 110.166 218.889C102.793 222.095 93.9783 223.697 83.7208 223.697H50.0634L64.1675 210.395V253.508H32.4333ZM101.832 253.508L73.9442 212.639H107.762L135.81 253.508H101.832ZM64.1675 213.76L50.0634 199.176H81.7976C88.4222 199.176 93.3372 197.733 96.5427 194.848C99.855 191.963 101.511 187.956 101.511 182.828C101.511 177.592 99.855 173.532 96.5427 170.647C93.3372 167.762 88.4222 166.32 81.7976 166.32H50.0634L64.1675 151.735V213.76Z" fill="#EAFF00"/>
<path d="M104.769 394C101.711 394 99.0971 393.313 96.927 391.939C94.757 390.564 93.0966 388.587 91.9458 386.006C90.8279 383.391 90.2689 380.207 90.2689 376.453C90.2689 372.464 90.9594 369.095 92.3403 366.346C93.7213 363.598 95.6447 361.52 98.1107 360.112C100.577 358.704 103.404 358 106.594 358C108.238 358 109.799 358.168 111.279 358.503C112.791 358.838 114.09 359.358 115.175 360.061L113.301 363.983C112.413 363.346 111.394 362.911 110.243 362.676C109.125 362.441 107.942 362.324 106.692 362.324C103.174 362.324 100.379 363.447 98.308 365.693C96.2366 367.905 95.2009 371.207 95.2009 375.598C95.2009 376.302 95.2337 377.14 95.2995 378.112C95.3653 379.084 95.5297 380.039 95.7927 380.978L94.1158 379.268C94.609 377.726 95.3817 376.436 96.4338 375.397C97.5189 374.324 98.8012 373.536 100.281 373.034C101.793 372.497 103.421 372.229 105.163 372.229C107.465 372.229 109.503 372.665 111.279 373.536C113.054 374.408 114.452 375.648 115.471 377.257C116.49 378.832 117 380.709 117 382.888C117 385.134 116.458 387.095 115.372 388.771C114.287 390.447 112.824 391.737 110.983 392.642C109.142 393.547 107.07 394 104.769 394ZM104.572 389.927C106.084 389.927 107.399 389.642 108.517 389.073C109.668 388.503 110.572 387.715 111.23 386.709C111.887 385.67 112.216 384.464 112.216 383.089C112.216 381.011 111.509 379.369 110.095 378.162C108.681 376.922 106.758 376.302 104.325 376.302C102.747 376.302 101.366 376.603 100.182 377.207C98.9985 377.81 98.0614 378.631 97.3709 379.67C96.7133 380.676 96.3845 381.832 96.3845 383.14C96.3845 384.346 96.6969 385.469 97.3216 386.508C97.9463 387.514 98.8669 388.335 100.083 388.972C101.3 389.609 102.796 389.927 104.572 389.927Z" fill="#FFDF00"/>
<path d="M61.4544 393.598V390.179L75.5105 376.352C76.7599 375.145 77.6805 374.089 78.2723 373.184C78.8971 372.246 79.308 371.391 79.5053 370.62C79.7355 369.816 79.8506 369.045 79.8506 368.307C79.8506 366.497 79.2258 365.073 77.9764 364.034C76.727 362.994 74.9022 362.475 72.502 362.475C70.6607 362.475 69.0003 362.793 67.5207 363.43C66.0411 364.034 64.7588 364.989 63.6738 366.296L60.3201 363.33C61.6353 361.62 63.3943 360.313 65.5973 359.408C67.8331 358.469 70.2826 358 72.9459 358C75.3461 358 77.4339 358.402 79.2094 359.207C80.9849 359.978 82.3494 361.101 83.3029 362.575C84.2893 364.05 84.7825 365.793 84.7825 367.804C84.7825 368.944 84.6345 370.067 84.3386 371.173C84.0427 372.279 83.4838 373.453 82.6618 374.693C81.8398 375.933 80.6561 377.324 79.1108 378.866L66.5837 391.184L65.4 389.223H86.2621V393.598H61.4544Z" fill="#FFDF00"/>
<path d="M33.1343 393.598V390.179L47.1904 376.352C48.4398 375.145 49.3604 374.089 49.9522 373.184C50.577 372.246 50.988 371.391 51.1852 370.62C51.4154 369.816 51.5305 369.045 51.5305 368.307C51.5305 366.497 50.9058 365.073 49.6563 364.034C48.4069 362.994 46.5821 362.475 44.1819 362.475C42.3406 362.475 40.6802 362.793 39.2006 363.43C37.721 364.034 36.4387 364.989 35.3537 366.296L32 363.33C33.3152 361.62 35.0742 360.313 37.2772 359.408C39.513 358.469 41.9625 358 44.6258 358C47.026 358 49.1138 358.402 50.8893 359.207C52.6648 359.978 54.0293 361.101 54.9828 362.575C55.9692 364.05 56.4624 365.793 56.4624 367.804C56.4624 368.944 56.3144 370.067 56.0185 371.173C55.7226 372.279 55.1637 373.453 54.3417 374.693C53.5197 375.933 52.336 377.324 50.7907 378.866L38.2636 391.184L37.0799 389.223H57.942V393.598H33.1343Z" fill="#FFDF00"/>
<path d="M79.5797 57C76.6508 57 74.1182 56.581 71.9819 55.743C69.8455 54.905 68.1916 53.7151 67.02 52.1732C65.8485 50.5978 65.2627 48.7542 65.2627 46.6425C65.2627 44.5642 65.814 42.8045 66.9166 41.3631C68.0537 39.8883 69.6904 38.7821 71.8268 38.0447C73.9631 37.2737 76.5474 36.8883 79.5797 36.8883C82.6119 36.8883 85.1962 37.2737 87.3326 38.0447C89.5034 38.7821 91.1573 39.8883 92.2944 41.3631C93.4315 42.838 94 44.5978 94 46.6425C94 48.7542 93.4143 50.5978 92.2427 52.1732C91.0712 53.7151 89.4 54.905 87.2292 55.743C85.0584 56.581 82.5085 57 79.5797 57ZM79.5797 52.9274C82.4741 52.9274 84.731 52.3575 86.3505 51.2179C88.0045 50.0447 88.8314 48.4693 88.8314 46.4916C88.8314 44.5475 88.0045 43.0223 86.3505 41.9162C84.731 40.7765 82.4741 40.2067 79.5797 40.2067C76.7197 40.2067 74.48 40.7765 72.8605 41.9162C71.241 43.0223 70.4313 44.5475 70.4313 46.4916C70.4313 48.4693 71.241 50.0447 72.8605 51.2179C74.48 52.3575 76.7197 52.9274 79.5797 52.9274ZM79.5797 39.6033C76.8231 39.6033 74.48 39.2514 72.5504 38.5475C70.6208 37.8101 69.1391 36.7709 68.1054 35.4302C67.0717 34.0559 66.5548 32.4302 66.5548 30.5531C66.5548 28.5754 67.0889 26.8827 68.1571 25.4749C69.2597 24.0335 70.7931 22.9274 72.7571 22.1564C74.7212 21.3855 76.9954 21 79.5797 21C82.1984 21 84.4898 21.3855 86.4539 22.1564C88.418 22.9274 89.9513 24.0335 91.0539 25.4749C92.1566 26.8827 92.7079 28.5754 92.7079 30.5531C92.7079 32.4302 92.191 34.0559 91.1573 35.4302C90.1236 36.7709 88.6247 37.8101 86.6606 38.5475C84.6966 39.2514 82.3363 39.6033 79.5797 39.6033ZM79.5797 36.3855C82.0951 36.3855 84.0591 35.8827 85.4719 34.8771C86.9191 33.8715 87.6427 32.4972 87.6427 30.7542C87.6427 28.9777 86.9018 27.5866 85.4202 26.581C83.9385 25.5754 81.9917 25.0726 79.5797 25.0726C77.1677 25.0726 75.2381 25.5754 73.7909 26.581C72.3781 27.5866 71.6717 28.9777 71.6717 30.7542C71.6717 32.4972 72.3609 33.8715 73.7392 34.8771C75.1519 35.8827 77.0988 36.3855 79.5797 36.3855Z" fill="#FFDF00"/>
<path d="M46.317 57C43.3881 57 40.8555 56.581 38.7192 55.743C36.5828 54.905 34.9289 53.7151 33.7573 52.1732C32.5858 50.5978 32 48.7542 32 46.6425C32 44.5642 32.5513 42.8045 33.6539 41.3631C34.791 39.8883 36.4278 38.7821 38.5641 38.0447C40.7005 37.2737 43.2847 36.8883 46.317 36.8883C49.3492 36.8883 51.9335 37.2737 54.0699 38.0447C56.2407 38.7821 57.8946 39.8883 59.0317 41.3631C60.1688 42.838 60.7373 44.5978 60.7373 46.6425C60.7373 48.7542 60.1516 50.5978 58.98 52.1732C57.8085 53.7151 56.1373 54.905 53.9665 55.743C51.7957 56.581 49.2459 57 46.317 57ZM46.317 52.9274C49.2114 52.9274 51.4683 52.3575 53.0878 51.2179C54.7418 50.0447 55.5688 48.4693 55.5688 46.4916C55.5688 44.5475 54.7418 43.0223 53.0878 41.9162C51.4683 40.7765 49.2114 40.2067 46.317 40.2067C43.457 40.2067 41.2173 40.7765 39.5978 41.9162C37.9783 43.0223 37.1686 44.5475 37.1686 46.4916C37.1686 48.4693 37.9783 50.0447 39.5978 51.2179C41.2173 52.3575 43.457 52.9274 46.317 52.9274ZM46.317 39.6033C43.5604 39.6033 41.2173 39.2514 39.2877 38.5475C37.3581 37.8101 35.8764 36.7709 34.8427 35.4302C33.809 34.0559 33.2921 32.4302 33.2921 30.5531C33.2921 28.5754 33.8262 26.8827 34.8944 25.4749C35.997 24.0335 37.5304 22.9274 39.4945 22.1564C41.4585 21.3855 43.7327 21 46.317 21C48.9357 21 51.2271 21.3855 53.1912 22.1564C55.1553 22.9274 56.6886 24.0335 57.7912 25.4749C58.8939 26.8827 59.4452 28.5754 59.4452 30.5531C59.4452 32.4302 58.9283 34.0559 57.8946 35.4302C56.8609 36.7709 55.362 37.8101 53.398 38.5475C51.4339 39.2514 49.0736 39.6033 46.317 39.6033ZM46.317 36.3855C48.8324 36.3855 50.7964 35.8827 52.2092 34.8771C53.6564 33.8715 54.38 32.4972 54.38 30.7542C54.38 28.9777 53.6392 27.5866 52.1575 26.581C50.6758 25.5754 48.729 25.0726 46.317 25.0726C43.905 25.0726 41.9754 25.5754 40.5282 26.581C39.1154 27.5866 38.409 28.9777 38.409 30.7542C38.409 32.4972 39.0982 33.8715 40.4765 34.8771C41.8892 35.8827 43.8361 36.3855 46.317 36.3855Z" fill="#FFDF00"/>
</svg>
