<svg width="417" height="417" viewBox="0 0 417 417" fill="none" xmlns="http://www.w3.org/2000/svg">
<rect width="417" height="417" fill="black"/>
<path d="M242.526 316.424V290.23H247.271V309.307L263.333 290.23H267.633V316.424H262.888V297.347L246.875 316.424H242.526ZM254.783 286.82C252.378 286.82 250.483 286.244 249.099 285.09C247.749 283.904 247.057 282.208 247.024 280H250.236C250.269 281.252 250.681 282.24 251.472 282.965C252.295 283.69 253.383 284.053 254.734 284.053C256.084 284.053 257.172 283.69 257.995 282.965C258.819 282.24 259.247 281.252 259.28 280H262.592C262.559 282.208 261.85 283.904 260.467 285.09C259.083 286.244 257.188 286.82 254.783 286.82Z" fill="#FFDF00"/>
<path d="M208.211 316.424V290.23H212.955V309.307L229.017 290.23H233.317V316.424H228.573V297.347L212.56 316.424H208.211Z" fill="#FFDF00"/>
<path d="M174.571 316.424V290.23H179.315V301.35H194.241V290.23H198.985V316.424H194.241V305.453H179.315V316.424H174.571Z" fill="#FFDF00"/>
<path d="M154.128 316.721C151.492 316.721 149.153 316.144 147.11 314.991C145.068 313.838 143.453 312.256 142.267 310.247C141.081 308.204 140.488 305.897 140.488 303.327C140.488 300.724 141.081 298.418 142.267 296.408C143.453 294.398 145.068 292.833 147.11 291.713C149.153 290.56 151.492 289.983 154.128 289.983C156.731 289.983 159.054 290.56 161.097 291.713C163.173 292.833 164.787 294.398 165.94 296.408C167.126 298.385 167.719 300.692 167.719 303.327C167.719 305.93 167.126 308.237 165.94 310.247C164.787 312.256 163.173 313.838 161.097 314.991C159.054 316.144 156.731 316.721 154.128 316.721ZM154.128 312.569C155.809 312.569 157.308 312.19 158.626 311.433C159.977 310.675 161.031 309.604 161.789 308.22C162.547 306.803 162.925 305.172 162.925 303.327C162.925 301.449 162.547 299.835 161.789 298.484C161.031 297.1 159.977 296.029 158.626 295.272C157.308 294.514 155.809 294.135 154.128 294.135C152.448 294.135 150.949 294.514 149.631 295.272C148.313 296.029 147.259 297.1 146.468 298.484C145.677 299.835 145.282 301.449 145.282 303.327C145.282 305.172 145.677 306.803 146.468 308.22C147.259 309.604 148.313 310.675 149.631 311.433C150.949 312.19 152.448 312.569 154.128 312.569Z" fill="#FFDF00"/>
<path d="M124.884 316.424V293.146L126.07 294.382H115.296V290.23H139.216V294.382H128.492L129.628 293.146V316.424H124.884Z" fill="#FFDF00"/>
<path d="M92.7947 326.309C91.5427 326.309 90.3236 326.095 89.1375 325.666C87.9513 325.271 86.93 324.678 86.0733 323.887L88.0996 320.329C88.7586 320.955 89.4834 321.432 90.2742 321.762C91.0649 322.091 91.9051 322.256 92.7947 322.256C93.9479 322.256 94.9034 321.96 95.6612 321.366C96.419 320.773 97.1274 319.719 97.7864 318.203L99.4173 314.596L99.9115 314.003L110.191 290.23H114.837L102.136 319.044C101.378 320.889 100.521 322.338 99.5656 323.393C98.643 324.447 97.6216 325.188 96.5014 325.617C95.3812 326.078 94.1456 326.309 92.7947 326.309ZM99.0219 317.264L87.0617 290.23H92.004L102.185 313.558L99.0219 317.264Z" fill="#FFDF00"/>
<path d="M55.45 316.375L55.7465 312.372C55.9772 312.405 56.1913 312.438 56.389 312.47C56.5867 312.503 56.7679 312.52 56.9327 312.52C57.987 312.52 58.8107 312.157 59.4038 311.433C60.0298 310.708 60.4911 309.752 60.7876 308.566C61.0841 307.347 61.2983 305.98 61.4301 304.464C61.5619 302.948 61.6607 301.433 61.7266 299.917L62.1714 290.23H82.2863V316.424H77.5417V292.998L78.6785 294.382H65.2356L66.3229 292.949L65.9769 300.214C65.8781 302.52 65.6969 304.678 65.4333 306.688C65.1697 308.698 64.7579 310.461 64.1977 311.976C63.6706 313.492 62.9292 314.678 61.9737 315.535C61.0512 316.391 59.8486 316.82 58.3659 316.82C57.9376 316.82 57.4763 316.77 56.9821 316.671C56.5208 316.605 56.0101 316.507 55.45 316.375Z" fill="#FFDF00"/>
<path d="M20 316.425V281.829H49.8016V316.425H44.9582V284.844L46.1444 286.129H23.6572L24.8928 284.844V316.425H20Z" fill="#FFDF00"/>
<path d="M178.592 253.406C171.156 253.406 164.453 251.942 158.482 249.013C152.624 246.083 148.005 241.521 144.625 235.325C141.358 229.016 139.725 221.073 139.725 211.497V160.294H171.832V206.259C171.832 213.356 173.128 218.426 175.719 221.468C178.423 224.509 182.197 226.03 187.041 226.03C190.196 226.03 193.068 225.298 195.659 223.833C198.251 222.369 200.335 220.059 201.912 216.905C203.489 213.638 204.278 209.47 204.278 204.4V160.294H236.385V251.885H205.799V226.03L211.713 233.297C208.559 240.056 203.996 245.126 198.025 248.506C192.054 251.773 185.577 253.406 178.592 253.406Z" fill="#FFDF00"/>
<path d="M16.9889 251.885V133.594H71.0647C81.8798 133.594 91.1741 135.34 98.9475 138.833C106.834 142.325 112.917 147.395 117.198 154.042C121.479 160.576 123.62 168.349 123.62 177.362C123.62 186.262 121.479 193.979 117.198 200.513C112.917 207.047 106.834 212.117 98.9475 215.722C91.1741 219.214 81.8798 220.96 71.0647 220.96H35.5774L50.4483 206.428V251.885H16.9889ZM50.4483 209.976L35.5774 194.598H69.0368C76.0216 194.598 81.2039 193.078 84.5836 190.036C88.076 186.994 89.8222 182.769 89.8222 177.362C89.8222 171.842 88.076 167.561 84.5836 164.519C81.2039 161.477 76.0216 159.956 69.0368 159.956H35.5774L50.4483 144.578V209.976Z" fill="#FFDF00"/>
<path d="M76.8129 389.254V385.695L93.115 362.407H98.033L81.8675 385.695L79.5451 384.881H105V389.254H76.8129ZM94.5266 398V389.254L94.6633 384.881V377.152H98.9437V398H94.5266Z" fill="#FFDF00"/>
<path d="M46.3514 389.254V385.695L62.6535 362.407H67.5715L51.406 385.695L49.0836 384.881H74.5386V389.254H46.3514ZM64.0652 398V389.254L64.2018 384.881V377.152H68.4822V398H64.0652Z" fill="#FFDF00"/>
<path d="M21.0473 398V394.542L34.0253 380.559C35.1788 379.339 36.0289 378.271 36.5753 377.356C37.1521 376.407 37.5316 375.542 37.7137 374.763C37.9262 373.949 38.0325 373.169 38.0325 372.424C38.0325 370.593 37.4557 369.153 36.3021 368.102C35.1485 367.051 33.4636 366.525 31.2475 366.525C29.5475 366.525 28.0144 366.847 26.6483 367.492C25.2822 368.102 24.0983 369.068 23.0965 370.39L20 367.39C21.2143 365.661 22.8384 364.339 24.8724 363.424C26.9367 362.475 29.1984 362 31.6574 362C33.8735 362 35.8012 362.407 37.4405 363.22C39.0798 364 40.3397 365.136 41.22 366.627C42.1308 368.119 42.5861 369.881 42.5861 371.915C42.5861 373.068 42.4495 374.203 42.1763 375.322C41.9031 376.441 41.387 377.627 40.6281 378.881C39.8691 380.136 38.7762 381.542 37.3494 383.102L25.7831 395.559L24.6903 393.576H43.9522V398H21.0473Z" fill="#FFDF00"/>
<path d="M51.1208 59.1422V55.6227L68.9319 32.5947H74.3051L56.6432 55.6227L54.1059 54.8182H81.9171V59.1422H51.1208ZM70.4742 67.7903V59.1422L70.6235 54.8182V47.1757H75.3001V67.7903H70.4742Z" fill="#FFDF00"/>
<path d="M37.2887 32C40.4396 32 43.093 32.6871 45.249 34.0614C47.438 35.4358 49.0964 37.4302 50.2241 40.0447C51.3518 42.6257 51.9157 45.7933 51.9157 49.5475C51.9157 53.5363 51.2192 56.905 49.8261 59.6536C48.4331 62.4022 46.5093 64.4804 44.0549 65.8883C41.6005 67.2961 38.7315 68 35.4479 68C33.8226 68 32.2472 67.8324 30.7214 67.4972C29.2289 67.162 27.9188 66.6425 26.7911 65.9385L28.6816 62.0168C29.6103 62.6201 30.6385 63.0559 31.7662 63.324C32.9271 63.5587 34.1377 63.676 35.3981 63.676C38.9139 63.676 41.7166 62.5698 43.8062 60.3575C45.8957 58.1117 46.9405 54.7933 46.9405 50.4022C46.9405 49.6983 46.9073 48.8603 46.841 47.8883C46.7747 46.9162 46.6254 45.9609 46.3932 45.0223L48.0351 46.7318C47.5707 48.2737 46.7913 49.581 45.6967 50.6536C44.6354 51.6927 43.3418 52.4804 41.8161 53.0168C40.3235 53.5196 38.6817 53.771 36.8907 53.771C34.6021 53.771 32.5623 53.3352 30.7712 52.4637C28.9801 51.5922 27.5705 50.3687 26.5423 48.7933C25.5141 47.1844 25 45.2905 25 43.1117C25 40.8324 25.5307 38.8715 26.5921 37.229C27.6866 35.5531 29.1626 34.2626 31.02 33.3575C32.9105 32.4525 35.0001 32 37.2887 32ZM37.4877 36.0726C35.9951 36.0726 34.6684 36.3575 33.5075 36.9274C32.3467 37.4972 31.4346 38.2849 30.7712 39.2905C30.141 40.2961 29.8259 41.5028 29.8259 42.9106C29.8259 44.9888 30.539 46.648 31.9652 47.8883C33.3915 49.095 35.3152 49.6983 37.7364 49.6983C39.3285 49.6983 40.7215 49.3966 41.9156 48.7933C43.1428 48.1899 44.0881 47.3687 44.7514 46.3296C45.448 45.2905 45.7962 44.1341 45.7962 42.8603C45.7962 41.6201 45.4811 40.4972 44.8509 39.4916C44.2208 38.486 43.2921 37.6648 42.0648 37.0279C40.8376 36.3911 39.3119 36.0726 37.4877 36.0726Z" fill="#FFDF00"/>
</svg>
