<svg width="768" height="768" viewBox="0 0 768 768" fill="none" xmlns="http://www.w3.org/2000/svg">
<circle cx="384" cy="384" r="376.5" stroke="black" stroke-width="15"/>
<path d="M723.48 382.155C723.48 322.039 707.603 262.989 677.454 210.979C647.306 158.97 603.956 115.845 551.79 85.9679L432.042 295.051C447.383 303.837 460.132 316.519 468.998 331.815C477.865 347.11 482.534 364.476 482.534 382.155H723.48Z" fill="black"/>
<path d="M40.83 382.155C40.83 322.039 56.7073 262.989 86.8557 210.979C117.004 158.97 160.354 115.845 212.52 85.9679L332.268 295.051C316.926 303.837 304.178 316.519 295.312 331.815C286.445 347.11 281.776 364.476 281.776 382.155H40.83Z" fill="black"/>
<path d="M552.817 677.751C500.755 707.809 441.678 723.584 381.562 723.48C321.446 723.375 262.424 707.395 210.467 677.157L331.664 468.911C346.944 477.804 364.301 482.503 381.981 482.534C399.66 482.565 417.034 477.925 432.344 469.086L552.817 677.751Z" fill="black"/>
<circle cx="380.31" cy="384" r="66.42" fill="black"/>
</svg>
