<svg width="3001" height="50" viewBox="0 0 3001 50" fill="none" xmlns="http://www.w3.org/2000/svg">
<rect width="3001" height="49.5" fill="#FFDF00"/>
<path d="M112.993 0H192.662L107.978 49.3797H34L112.993 0Z" fill="black"/>
<path d="M1682.99 0H1762.66L1677.98 49.3797H1604L1682.99 0Z" fill="black"/>
<path d="M1839.99 0H1919.66L1834.98 49.3797H1761L1839.99 0Z" fill="black"/>
<path d="M1992.99 0H2072.66L1987.98 49.3797H1914L1992.99 0Z" fill="black"/>
<path d="M2146.99 0H2226.66L2141.98 49.3797H2068L2146.99 0Z" fill="black"/>
<path d="M2459.99 0H2539.66L2454.98 49.3797H2381L2459.99 0Z" fill="black"/>
<path d="M2612.99 0H2692.66L2607.98 49.3797H2534L2612.99 0Z" fill="black"/>
<path d="M2919.99 0H2999.66L2914.98 49.3797H2841L2919.99 0Z" fill="black"/>
<path d="M2765.99 0H2845.66L2760.98 49.3797H2687L2765.99 0Z" fill="black"/>
<path d="M2305.99 0H2385.66L2300.98 49.3797H2227L2305.99 0Z" fill="black"/>
<path d="M271.993 0H351.662L266.978 49.3797H193L271.993 0Z" fill="black"/>
<path d="M1528.99 0H1608.66L1523.98 49.3797H1450L1528.99 0Z" fill="black"/>
<path d="M1369.99 0H1449.66L1364.98 49.3797H1291L1369.99 0Z" fill="black"/>
<path d="M1215.99 0H1295.66L1210.98 49.3797H1137L1215.99 0Z" fill="black"/>
<path d="M1056.99 0H1136.66L1051.98 49.3797H978L1056.99 0Z" fill="black"/>
<path d="M902.993 0H982.662L897.978 49.3797H824L902.993 0Z" fill="black"/>
<path d="M743.993 0H823.662L738.978 49.3797H665L743.993 0Z" fill="black"/>
<path d="M584.993 0H664.662L579.978 49.3797H506L584.993 0Z" fill="black"/>
<path d="M425.993 0H505.662L420.978 49.3797H347L425.993 0Z" fill="black"/>
</svg>
