<svg width="417" height="417" viewBox="0 0 417 417" fill="none" xmlns="http://www.w3.org/2000/svg">
<rect width="417" height="417" fill="#FFDF00"/>
<path d="M154.033 320.424V294.23H158.777V313.307L174.839 294.23H179.139V320.424H174.395V301.347L158.382 320.424H154.033ZM166.289 290.82C163.884 290.82 161.99 290.244 160.606 289.09C159.255 287.904 158.563 286.208 158.53 284H161.742C161.775 285.252 162.187 286.24 162.978 286.965C163.802 287.69 164.889 288.053 166.24 288.053C167.591 288.053 168.678 287.69 169.502 286.965C170.325 286.24 170.754 285.252 170.787 284H174.098C174.065 286.208 173.357 287.904 171.973 289.09C170.589 290.244 168.695 290.82 166.289 290.82Z" fill="black"/>
<path d="M119.717 320.424V294.23H124.462V313.307L140.524 294.23H144.823V320.424H140.079V301.347L124.066 320.424H119.717Z" fill="black"/>
<path d="M99.5786 320.721C97.404 320.721 95.4107 320.227 93.5985 319.238C91.8193 318.217 90.3861 316.718 89.2988 314.741C88.2445 312.764 87.7173 310.293 87.7173 307.327C87.7173 304.362 88.228 301.891 89.2494 299.914C90.3037 297.937 91.7205 296.455 93.4997 295.466C95.3118 294.478 97.3382 293.983 99.5786 293.983C102.149 293.983 104.422 294.544 106.399 295.664C108.376 296.784 109.941 298.349 111.094 300.359C112.247 302.336 112.824 304.659 112.824 307.327C112.824 309.996 112.247 312.336 111.094 314.345C109.941 316.355 108.376 317.92 106.399 319.04C104.422 320.161 102.149 320.721 99.5786 320.721ZM85.691 330.012V294.231H90.2378V301.298L89.9413 307.377L90.4355 313.456V330.012H85.691ZM99.1832 316.569C100.864 316.569 102.363 316.19 103.681 315.433C105.032 314.675 106.086 313.604 106.844 312.22C107.634 310.803 108.03 309.172 108.03 307.327C108.03 305.449 107.634 303.835 106.844 302.484C106.086 301.1 105.032 300.029 103.681 299.272C102.363 298.514 100.864 298.135 99.1832 298.135C97.5358 298.135 96.0367 298.514 94.6858 299.272C93.3679 300.029 92.3136 301.1 91.5228 302.484C90.765 303.835 90.3861 305.449 90.3861 307.327C90.3861 309.172 90.765 310.803 91.5228 312.22C92.3136 313.604 93.3679 314.675 94.6858 315.433C96.0367 316.19 97.5358 316.569 99.1832 316.569Z" fill="black"/>
<path d="M65.2486 320.721C62.6128 320.721 60.2735 320.144 58.2307 318.991C56.1879 317.838 54.5734 316.256 53.3873 314.247C52.2012 312.204 51.6081 309.897 51.6081 307.327C51.6081 304.724 52.2012 302.418 53.3873 300.408C54.5734 298.398 56.1879 296.833 58.2307 295.713C60.2735 294.56 62.6128 293.983 65.2486 293.983C67.8515 293.983 70.1744 294.56 72.2172 295.713C74.2929 296.833 75.9074 298.398 77.0605 300.408C78.2467 302.385 78.8397 304.692 78.8397 307.327C78.8397 309.93 78.2467 312.237 77.0605 314.247C75.9074 316.256 74.2929 317.838 72.2172 318.991C70.1744 320.144 67.8515 320.721 65.2486 320.721ZM65.2486 316.569C66.929 316.569 68.4281 316.19 69.746 315.433C71.0969 314.675 72.1513 313.604 72.9091 312.22C73.6669 310.803 74.0458 309.172 74.0458 307.327C74.0458 305.449 73.6669 303.835 72.9091 302.484C72.1513 301.1 71.0969 300.029 69.746 299.272C68.4281 298.514 66.929 298.135 65.2486 298.135C63.5683 298.135 62.0691 298.514 60.7512 299.272C59.4333 300.029 58.3789 301.1 57.5882 302.484C56.7974 303.835 56.402 305.449 56.402 307.327C56.402 309.172 56.7974 310.803 57.5882 312.22C58.3789 313.604 59.4333 314.675 60.7512 315.433C62.0691 316.19 63.5683 316.569 65.2486 316.569Z" fill="black"/>
<path d="M34.8119 320.424V288.843L36.0475 290.128H23V285.829H51.5166V290.128H38.4692L39.6553 288.843V320.424H34.8119Z" fill="black"/>
<path d="M173.749 184.022C180.13 184.022 185.904 185.339 191.071 187.972C196.237 190.505 200.289 194.455 203.226 199.824C206.265 205.193 207.785 212.132 207.785 220.641V267.744H178.915V225.351C178.915 219.476 177.699 215.222 175.268 212.588C172.938 209.853 169.646 208.485 165.392 208.485C162.353 208.485 159.567 209.194 157.034 210.612C154.502 211.929 152.527 214.006 151.109 216.842C149.69 219.679 148.981 223.376 148.981 227.934V267.744H120.111V155H148.981V208.789L142.296 201.952C145.436 195.975 149.741 191.518 155.211 188.58C160.681 185.541 166.86 184.022 173.749 184.022Z" fill="black"/>
<path d="M47.6685 267.744V185.237H15V161.382H110.271V185.237H77.754V267.744H47.6685Z" fill="black"/>
<path d="M88.7703 395.984V392.565L103.297 378.739C104.588 377.532 105.54 376.476 106.152 375.571C106.797 374.632 107.222 373.778 107.426 373.007C107.664 372.202 107.783 371.431 107.783 370.694C107.783 368.884 107.137 367.459 105.846 366.42C104.554 365.381 102.669 364.862 100.188 364.862C98.285 364.862 96.5689 365.18 95.0398 365.817C93.5106 366.42 92.1854 367.376 91.064 368.683L87.598 365.716C88.9572 364.007 90.7752 362.7 93.0519 361.795C95.3626 360.856 97.8942 360.387 100.647 360.387C103.127 360.387 105.285 360.789 107.12 361.593C108.955 362.364 110.365 363.487 111.351 364.962C112.37 366.437 112.88 368.18 112.88 370.191C112.88 371.331 112.727 372.454 112.421 373.56C112.115 374.666 111.538 375.839 110.688 377.079C109.838 378.32 108.615 379.711 107.018 381.253L94.0713 393.571L92.848 391.61H114.409V395.984H88.7703Z" fill="black"/>
<path d="M71.3186 396.387C68.804 396.387 66.3574 396.001 63.9787 395.23C61.634 394.459 59.7141 393.42 58.2189 392.113L60.5636 388.141C61.753 389.247 63.2991 390.152 65.202 390.856C67.105 391.56 69.1438 391.912 71.3186 391.912C73.9691 391.912 76.0249 391.359 77.4861 390.253C78.9813 389.113 79.7289 387.588 79.7289 385.677C79.7289 383.834 79.0153 382.359 77.5881 381.253C76.1948 380.113 73.9691 379.543 70.9108 379.543H68.0564V376.024L78.6585 363.152L79.3721 365.163H59.85V360.789H83.3988V364.208L72.8477 377.029L70.1972 375.471H71.8793C76.1949 375.471 79.423 376.426 81.5638 378.336C83.7386 380.247 84.826 382.677 84.826 385.627C84.826 387.605 84.3333 389.415 83.3478 391.057C82.3624 392.7 80.8672 394.007 78.8624 394.979C76.8915 395.917 74.3769 396.387 71.3186 396.387Z" fill="black"/>
<path d="M30.5813 395.984V392.565L45.1081 378.739C46.3994 377.532 47.3509 376.476 47.9625 375.571C48.6082 374.632 49.0329 373.778 49.2368 373.007C49.4747 372.202 49.5936 371.431 49.5936 370.694C49.5936 368.884 48.948 367.459 47.6567 366.42C46.3654 365.381 44.4795 364.862 41.9989 364.862C40.0959 364.862 38.3799 365.18 36.8508 365.817C35.3216 366.42 33.9964 367.376 32.875 368.683L29.4089 365.716C30.7682 364.007 32.5862 362.7 34.8629 361.795C37.1736 360.856 39.7052 360.387 42.4576 360.387C44.9382 360.387 47.096 360.789 48.931 361.593C50.766 362.364 52.1762 363.487 53.1616 364.962C54.181 366.437 54.6908 368.18 54.6908 370.191C54.6908 371.331 54.5378 372.454 54.232 373.56C53.9262 374.666 53.3485 375.839 52.499 377.079C51.6495 378.32 50.4261 379.711 48.829 381.253L35.8823 393.571L34.659 391.61H56.2199V395.984H30.5813Z" fill="black"/>
<path d="M71.9253 68.1924C69.12 68.1924 66.6055 67.4885 64.3818 66.0807C62.1923 64.6728 60.4475 62.6281 59.1475 59.9466C57.8817 57.265 57.2488 54.0136 57.2488 50.1924C57.2488 46.3712 57.8817 43.1198 59.1475 40.4382C60.4475 37.7566 62.1923 35.7119 64.3818 34.3041C66.6055 32.8963 69.12 32.1924 71.9253 32.1924C74.6964 32.1924 77.1938 32.8963 79.4175 34.3041C81.6412 35.7119 83.386 37.7566 84.6518 40.4382C85.9176 43.1198 86.5505 46.3712 86.5505 50.1924C86.5505 54.0136 85.9176 57.265 84.6518 59.9466C83.386 62.6281 81.6412 64.6728 79.4175 66.0807C77.1938 67.4885 74.6964 68.1924 71.9253 68.1924ZM71.9253 63.7175C73.8069 63.7175 75.449 63.2147 76.8517 62.2091C78.2886 61.2036 79.4004 59.6952 80.1873 57.684C81.0083 55.6728 81.4189 53.1756 81.4189 50.1924C81.4189 47.2091 81.0083 44.7119 80.1873 42.7008C79.4004 40.6896 78.2886 39.1812 76.8517 38.1756C75.449 37.17 73.8069 36.6672 71.9253 36.6672C70.0437 36.6672 68.3845 37.17 66.9476 38.1756C65.5107 39.1812 64.3818 40.6896 63.5607 42.7008C62.7739 44.7119 62.3804 47.2091 62.3804 50.1924C62.3804 53.1756 62.7739 55.6728 63.5607 57.684C64.3818 59.6952 65.5107 61.2036 66.9476 62.2091C68.3845 63.2147 70.0437 63.7175 71.9253 63.7175Z" fill="black"/>
<path d="M37.2257 32.1924C40.4757 32.1924 43.2126 32.8795 45.4363 34.2538C47.6942 35.6281 49.4048 37.6225 50.568 40.2371C51.7311 42.8181 52.3127 45.9857 52.3127 49.7399C52.3127 53.7287 51.5943 57.0974 50.1574 59.846C48.7206 62.5946 46.7363 64.6728 44.2047 66.0807C41.6731 67.4885 38.7138 68.1924 35.3269 68.1924C33.6506 68.1924 32.0256 68.0248 30.4519 67.6896C28.9124 67.3544 27.561 66.8348 26.3979 66.1309L28.3479 62.2091C29.3058 62.8125 30.3663 63.2482 31.5295 63.5164C32.7269 63.751 33.9756 63.8684 35.2756 63.8684C38.902 63.8684 41.7928 62.7622 43.9481 60.5499C46.1034 58.3041 47.1811 54.9857 47.1811 50.5946C47.1811 49.8907 47.1469 49.0527 47.0784 48.0806C47.01 47.1086 46.8561 46.1533 46.6166 45.2147L48.31 46.9242C47.8311 48.4661 47.0271 49.7734 45.8982 50.846C44.8034 51.8851 43.4692 52.6728 41.8955 53.2091C40.356 53.7119 38.6625 53.9633 36.8151 53.9633C34.4546 53.9633 32.3506 53.5276 30.5032 52.6561C28.6558 51.7846 27.2018 50.5611 26.1413 48.9857C25.0807 47.3767 24.5505 45.4829 24.5505 43.3041C24.5505 41.0248 25.0979 39.0639 26.1926 37.4214C27.3216 35.7455 28.844 34.455 30.7598 33.5499C32.7098 32.6449 34.8651 32.1924 37.2257 32.1924ZM37.4309 36.265C35.8914 36.265 34.523 36.5499 33.3256 37.1198C32.1282 37.6896 31.1874 38.4773 30.5032 39.4829C29.8532 40.4885 29.5282 41.6952 29.5282 43.103C29.5282 45.1812 30.2637 46.8404 31.7348 48.0806C33.2059 49.2874 35.1901 49.8907 37.6875 49.8907C39.3296 49.8907 40.7665 49.589 41.9981 48.9857C43.2639 48.3823 44.2389 47.5611 44.9231 46.522C45.6416 45.4829 46.0008 44.3265 46.0008 43.0527C46.0008 41.8125 45.6758 40.6896 45.0258 39.684C44.3758 38.6784 43.4179 37.8572 42.152 37.2203C40.8862 36.5834 39.3125 36.265 37.4309 36.265Z" fill="black"/>
</svg>
