<svg width="417" height="417" viewBox="0 0 417 417" fill="none" xmlns="http://www.w3.org/2000/svg">
<rect width="417" height="417" fill="#FFDF00"/>
<path d="M94.8861 268.356C72.9361 268.356 55.8009 262.349 43.4806 250.337C31.1602 238.325 25 221.295 25 199.249V117H67.0591V197.977C67.0591 210.696 69.5374 219.812 74.4938 225.323C79.5919 230.835 86.531 233.59 95.311 233.59C104.091 233.59 110.959 230.835 115.916 225.323C120.872 219.812 123.35 210.696 123.35 197.977V117H164.772V199.249C164.772 221.295 158.612 238.325 146.292 250.337C133.971 262.349 116.836 268.356 94.8861 268.356Z" fill="black"/>
<path d="M124.127 319.596V293.402H128.871V304.522H143.797V293.402H148.541V319.596H143.797V308.624H128.871V319.596H124.127Z" fill="black"/>
<path d="M111.086 319.595V314.06L110.839 313.022V303.582C110.839 301.573 110.246 300.024 109.06 298.937C107.906 297.816 106.16 297.256 103.821 297.256C102.272 297.256 100.757 297.52 99.274 298.047C97.7913 298.541 96.5393 299.217 95.5179 300.073L93.541 296.515C94.8919 295.428 96.5063 294.604 98.3844 294.044C100.295 293.451 102.289 293.154 104.364 293.154C107.956 293.154 110.723 294.027 112.667 295.774C114.611 297.52 115.583 300.189 115.583 303.78V319.595H111.086ZM102.486 319.892C100.542 319.892 98.8292 319.562 97.3465 318.903C95.8968 318.244 94.7765 317.338 93.9858 316.185C93.195 314.999 92.7997 313.665 92.7997 312.182C92.7997 310.765 93.1291 309.48 93.7881 308.327C94.48 307.174 95.5838 306.251 97.0994 305.559C98.6479 304.867 100.724 304.521 103.327 304.521H111.63V307.932H103.524C101.152 307.932 99.554 308.327 98.7303 309.118C97.9066 309.908 97.4948 310.864 97.4948 311.984C97.4948 313.269 98.0055 314.307 99.0269 315.098C100.048 315.856 101.465 316.234 103.277 316.234C105.056 316.234 106.605 315.839 107.923 315.048C109.274 314.258 110.246 313.104 110.839 311.589L111.778 314.851C111.152 316.399 110.048 317.635 108.466 318.557C106.885 319.447 104.892 319.892 102.486 319.892Z" fill="black"/>
<path d="M75.1266 319.892C72.952 319.892 70.9586 319.397 69.1465 318.409C67.3673 317.388 65.934 315.889 64.8467 313.912C63.7924 311.935 63.2652 309.464 63.2652 306.498C63.2652 303.533 63.7759 301.062 64.7973 299.085C65.8517 297.108 67.2684 295.625 69.0476 294.637C70.8598 293.649 72.8861 293.154 75.1266 293.154C77.6965 293.154 79.9699 293.714 81.9468 294.835C83.9237 295.955 85.4888 297.52 86.642 299.53C87.7951 301.507 88.3717 303.829 88.3717 306.498C88.3717 309.167 87.7951 311.506 86.642 313.516C85.4888 315.526 83.9237 317.091 81.9468 318.211C79.9699 319.332 77.6965 319.892 75.1266 319.892ZM61.2389 329.183V293.401H65.7858V300.469L65.4892 306.548L65.9835 312.627V329.183H61.2389ZM74.7312 315.74C76.4115 315.74 77.9107 315.361 79.2286 314.604C80.5795 313.846 81.6338 312.775 82.3916 311.391C83.1824 309.974 83.5778 308.343 83.5778 306.498C83.5778 304.62 83.1824 303.006 82.3916 301.655C81.6338 300.271 80.5795 299.2 79.2286 298.442C77.9107 297.685 76.4115 297.306 74.7312 297.306C73.0838 297.306 71.5846 297.685 70.2338 298.442C68.9158 299.2 67.8615 300.271 67.0707 301.655C66.3129 303.006 65.934 304.62 65.934 306.498C65.934 308.343 66.3129 309.974 67.0707 311.391C67.8615 312.775 68.9158 313.846 70.2338 314.604C71.5846 315.361 73.0838 315.74 74.7312 315.74Z" fill="black"/>
<path d="M29.4975 315.246C31.2108 315.872 32.7923 316.037 34.242 315.741C35.6917 315.411 36.9932 314.307 38.1463 312.429L39.8267 309.761L40.3209 309.217L53.0224 285H57.9152L42.5449 313.467C41.3917 315.642 40.0409 317.289 38.4923 318.409C36.9767 319.497 35.3293 320.09 33.5501 320.189C31.8038 320.32 30.0246 319.991 28.2125 319.2L29.4975 315.246ZM40.1727 313.615L25 285H30.2882L42.8909 309.662L40.1727 313.615Z" fill="black"/>
<path d="M96.3116 398C93.5314 398 91.1273 397.581 89.0994 396.743C87.0715 395.905 85.5015 394.715 84.3894 393.173C83.2773 391.598 82.7213 389.754 82.7213 387.642C82.7213 385.564 83.2446 383.804 84.2913 382.363C85.3707 380.888 86.9243 379.782 88.9522 379.045C90.9801 378.274 93.4333 377.888 96.3116 377.888C99.1899 377.888 101.643 378.274 103.671 379.045C105.732 379.782 107.302 380.888 108.381 382.363C109.46 383.838 110 385.598 110 387.642C110 389.754 109.444 391.598 108.332 393.173C107.22 394.715 105.633 395.905 103.573 396.743C101.512 397.581 99.0918 398 96.3116 398ZM96.3116 393.927C99.0591 393.927 101.202 393.357 102.739 392.218C104.309 391.045 105.094 389.469 105.094 387.492C105.094 385.547 104.309 384.022 102.739 382.916C101.202 381.776 99.0591 381.207 96.3116 381.207C93.5968 381.207 91.4708 381.776 89.9335 382.916C88.3962 384.022 87.6275 385.547 87.6275 387.492C87.6275 389.469 88.3962 391.045 89.9335 392.218C91.4708 393.357 93.5968 393.927 96.3116 393.927ZM96.3116 380.603C93.6949 380.603 91.4708 380.251 89.6391 379.547C87.8074 378.81 86.401 377.771 85.4197 376.43C84.4385 375.056 83.9478 373.43 83.9478 371.553C83.9478 369.575 84.4548 367.883 85.4688 366.475C86.5155 365.034 87.971 363.927 89.8353 363.156C91.6997 362.385 93.8585 362 96.3116 362C98.7974 362 100.973 362.385 102.837 363.156C104.701 363.927 106.157 365.034 107.203 366.475C108.25 367.883 108.773 369.575 108.773 371.553C108.773 373.43 108.283 375.056 107.302 376.43C106.32 377.771 104.898 378.81 103.033 379.547C101.169 380.251 98.9283 380.603 96.3116 380.603ZM96.3116 377.385C98.6993 377.385 100.564 376.883 101.905 375.877C103.278 374.871 103.965 373.497 103.965 371.754C103.965 369.978 103.262 368.587 101.856 367.581C100.449 366.575 98.6012 366.073 96.3116 366.073C94.022 366.073 92.1903 366.575 90.8166 367.581C89.4756 368.587 88.805 369.978 88.805 371.754C88.805 373.497 89.4592 374.871 90.7675 375.877C92.1086 376.883 93.9566 377.385 96.3116 377.385Z" fill="black"/>
<path d="M65.3402 398C62.9198 398 60.5648 397.615 58.2752 396.844C56.0183 396.073 54.1703 395.034 52.7311 393.726L54.988 389.754C56.1328 390.86 57.621 391.765 59.4527 392.469C61.2843 393.173 63.2468 393.525 65.3402 393.525C67.8914 393.525 69.8703 392.972 71.2767 391.866C72.7159 390.726 73.4355 389.201 73.4355 387.291C73.4355 385.447 72.7486 383.972 71.3749 382.866C70.0338 381.726 67.8914 381.156 64.9477 381.156H62.2002V377.637L72.4052 364.765L73.0921 366.777H54.3011V362.402H76.968V365.821L66.8121 378.643L64.2608 377.084H65.8799C70.0338 377.084 73.1411 378.039 75.2017 379.95C77.2951 381.86 78.3417 384.291 78.3417 387.24C78.3417 389.218 77.8675 391.028 76.9189 392.67C75.9704 394.313 74.5312 395.62 72.6014 396.592C70.7044 397.531 68.2839 398 65.3402 398Z" fill="black"/>
<path d="M26.1285 397.598V394.179L40.1113 380.352C41.3542 379.145 42.27 378.089 42.8588 377.184C43.4802 376.246 43.8891 375.391 44.0854 374.62C44.3143 373.816 44.4288 373.045 44.4288 372.307C44.4288 370.497 43.8073 369.073 42.5644 368.033C41.3215 366.994 39.5062 366.475 37.1185 366.475C35.2868 366.475 33.635 366.793 32.1632 367.43C30.6913 368.033 29.4157 368.989 28.3363 370.296L25 367.33C26.3084 365.62 28.0583 364.313 30.2497 363.408C32.4739 362.469 34.9107 362 37.56 362C39.9477 362 42.0247 362.402 43.791 363.207C45.5572 363.978 46.9146 365.101 47.8632 366.575C48.8444 368.05 49.335 369.793 49.335 371.804C49.335 372.944 49.1879 374.067 48.8935 375.173C48.5991 376.279 48.0431 377.452 47.2254 378.693C46.4076 379.933 45.2301 381.324 43.6929 382.866L31.231 395.184L30.0535 393.223H50.8069V397.598H26.1285Z" fill="black"/>
<path d="M59.3819 58.5978V55.1788L75.0303 41.352C76.4213 40.1453 77.4462 39.0894 78.1051 38.1844C78.8006 37.2458 79.2581 36.3911 79.4778 35.6201C79.734 34.8156 79.8621 34.0447 79.8621 33.3073C79.8621 31.4972 79.1666 30.0726 77.7757 29.0335C76.3847 27.9944 74.3531 27.4749 71.681 27.4749C69.6312 27.4749 67.7826 27.7933 66.1354 28.4302C64.4882 29.0335 63.0607 29.9888 61.8527 31.2961L58.119 28.3296C59.5832 26.6201 61.5416 25.3128 63.9941 24.4078C66.4832 23.4693 69.2102 23 72.1752 23C74.8473 23 77.1717 23.4022 79.1483 24.2067C81.125 24.9777 82.6441 26.1006 83.7056 27.5754C84.8037 29.0503 85.3528 30.7933 85.3528 32.8045C85.3528 33.9441 85.1881 35.067 84.8586 36.1732C84.5292 37.2793 83.9069 38.4525 82.9918 39.6927C82.0767 40.933 80.7589 42.324 79.0385 43.8659L65.0922 56.1844L63.7744 54.2235H87V58.5978H59.3819Z" fill="black"/>
<path d="M38.562 23C42.0394 23 44.9678 23.6871 47.3471 25.0614C49.763 26.4358 51.5932 28.4302 52.8377 31.0447C54.0823 33.6257 54.7046 36.7933 54.7046 40.5475C54.7046 44.5363 53.9359 47.905 52.3985 50.6536C50.8611 53.4022 48.738 55.4804 46.0293 56.8883C43.3206 58.2961 40.1543 59 36.5304 59C34.7368 59 32.9981 58.8324 31.3143 58.4972C29.6671 58.162 28.2212 57.6425 26.9767 56.9385L29.0631 53.0168C30.0881 53.6201 31.2228 54.0559 32.4673 54.324C33.7485 54.5587 35.0846 54.676 36.4755 54.676C40.3556 54.676 43.4487 53.5698 45.7548 51.3575C48.0609 49.1117 49.2139 45.7933 49.2139 41.4022C49.2139 40.6983 49.1773 39.8603 49.1041 38.8883C49.0309 37.9162 48.8662 36.9609 48.6099 36.0223L50.4218 37.7318C49.9094 39.2737 49.0492 40.581 47.8412 41.6536C46.6699 42.6927 45.2423 43.4804 43.5585 44.0168C41.9113 44.5196 40.0994 44.7709 38.1227 44.7709C35.597 44.7709 33.3459 44.3352 31.3692 43.4637C29.3926 42.5922 27.8369 41.3687 26.7021 39.7933C25.5674 38.1844 25 36.2905 25 34.1117C25 31.8324 25.5857 29.8715 26.757 28.229C27.965 26.5531 29.5939 25.2626 31.6437 24.3575C33.7302 23.4525 36.0363 23 38.562 23ZM38.7816 27.0726C37.1344 27.0726 35.6702 27.3575 34.3891 27.9274C33.1079 28.4972 32.1013 29.2849 31.3692 30.2905C30.6737 31.2961 30.326 32.5028 30.326 33.9106C30.326 35.9888 31.113 37.648 32.687 38.8883C34.261 40.095 36.384 40.6983 39.0562 40.6983C40.8132 40.6983 42.3506 40.3966 43.6683 39.7933C45.0227 39.1899 46.0659 38.3687 46.798 37.3296C47.5667 36.2905 47.951 35.1341 47.951 33.8603C47.951 32.6201 47.6033 31.4972 46.9078 30.4916C46.2123 29.486 45.1874 28.6648 43.833 28.0279C42.4787 27.3911 40.7949 27.0726 38.7816 27.0726Z" fill="black"/>
</svg>
