<svg width="1087" height="309" viewBox="0 0 1087 309" fill="none" xmlns="http://www.w3.org/2000/svg">
<rect y="9.44238" width="1086.89" height="283.27" fill="black"/>
<path d="M20.9017 295.678C20.9017 295.678 162.881 283.127 221.087 223.651C328.035 114.369 404.903 15.2686 550.157 12.5374C695.096 9.81222 788.734 156.591 887.455 238.559C955.947 295.428 1068.44 295.685 1068.44 295.685" stroke="#FFDF00" stroke-width="25" stroke-linecap="round"/>
<path d="M20.9017 12.5446C20.9017 12.5446 162.881 25.0957 221.087 84.5712C328.035 193.853 404.903 292.954 550.157 295.685C695.096 298.41 788.734 151.632 887.455 69.6633C955.947 12.7944 1073.93 12.5452 1073.93 12.5452" stroke="#FFDF00" stroke-width="25" stroke-linecap="round"/>
<path d="M539.188 49.7988V263.396" stroke="#FFDF00" stroke-width="25" stroke-linecap="round"/>
<path d="M626.941 64.7012V241.044" stroke="#FFDF00" stroke-width="25" stroke-linecap="round"/>
<path d="M700.982 121.825V186.401" stroke="#FFDF00" stroke-width="25" stroke-linecap="round"/>
<path d="M459.663 64.7012V238.56" stroke="#FFDF00" stroke-width="25" stroke-linecap="round"/>
<path d="M382.88 126.793V188.886" stroke="#FFDF00" stroke-width="25" stroke-linecap="round"/>
<path d="M29.1285 52.2822V255.944" stroke="#FFDF00" stroke-width="25" stroke-linecap="round"/>
<path d="M116.881 67.1846V236.076" stroke="#FFDF00" stroke-width="25" stroke-linecap="round"/>
<path d="M185.437 121.825V183.918" stroke="#FFDF00" stroke-width="25" stroke-linecap="round"/>
<path d="M898.424 116.857V188.884" stroke="#FFDF00" stroke-width="25" stroke-linecap="round"/>
<path d="M975.207 62.2168V250.978" stroke="#FFDF00" stroke-width="25" stroke-linecap="round"/>
<path d="M1057.47 47.3154V258.428" stroke="#FFDF00" stroke-width="25" stroke-linecap="round"/>
</svg>
