<svg width="1080" height="309" viewBox="0 0 1080 309" fill="none" xmlns="http://www.w3.org/2000/svg">
<rect x="-6.5" y="9.94238" width="1085.89" height="282.27" fill="#FFDF00" stroke="black"/>
<path d="M13.9017 295.678C13.9017 295.678 155.881 283.127 214.087 223.651C321.035 114.369 397.903 15.2686 543.157 12.5374C688.096 9.81222 781.734 156.591 880.455 238.559C948.947 295.428 1061.44 295.685 1061.44 295.685" stroke="black" stroke-width="25" stroke-linecap="round"/>
<path d="M13.9017 12.5446C13.9017 12.5446 155.881 25.0957 214.087 84.5712C321.035 193.853 397.903 292.954 543.157 295.685C688.096 298.41 781.734 151.632 880.455 69.6633C948.947 12.7944 1066.93 12.5452 1066.93 12.5452" stroke="black" stroke-width="25" stroke-linecap="round"/>
<path d="M532.188 49.7988V263.396" stroke="black" stroke-width="25" stroke-linecap="round"/>
<path d="M619.941 64.7012V241.044" stroke="black" stroke-width="25" stroke-linecap="round"/>
<path d="M693.982 121.825V186.401" stroke="black" stroke-width="25" stroke-linecap="round"/>
<path d="M452.663 64.7012V238.56" stroke="black" stroke-width="25" stroke-linecap="round"/>
<path d="M375.88 126.793V188.886" stroke="black" stroke-width="25" stroke-linecap="round"/>
<path d="M22.1285 52.2822V255.944" stroke="black" stroke-width="25" stroke-linecap="round"/>
<path d="M109.881 67.1846V236.076" stroke="black" stroke-width="25" stroke-linecap="round"/>
<path d="M178.437 121.825V183.918" stroke="black" stroke-width="25" stroke-linecap="round"/>
<path d="M891.424 116.857V188.884" stroke="black" stroke-width="25" stroke-linecap="round"/>
<path d="M968.207 62.2168V250.978" stroke="black" stroke-width="25" stroke-linecap="round"/>
<path d="M1050.47 47.3154V258.428" stroke="black" stroke-width="25" stroke-linecap="round"/>
</svg>
