<svg width="834" height="887" viewBox="0 0 834 887" fill="none" xmlns="http://www.w3.org/2000/svg">
<rect width="834" height="417" fill="#FFDF00"/>
<rect y="417" width="417" height="417" fill="#FFDF00"/>
<rect x="417" y="417" width="417" height="417" fill="#FFDF00"/>
<circle cx="601.56" cy="618.56" r="155.238" transform="rotate(-171.248 601.56 618.56)" stroke="black" stroke-width="30"/>
<ellipse cx="601.557" cy="618.88" rx="30.9969" ry="29.8303" transform="rotate(-171.248 601.557 618.88)" fill="black"/>
<path d="M623.433 583.288L664.772 505.686C664.772 505.686 702.947 528.575 716.689 557.589C734.795 589.219 733.158 629.045 733.158 629.045L644.701 622.008C644.701 622.008 644.141 608.376 640.339 600.844C636.049 592.346 623.433 583.288 623.433 583.288Z" fill="black"/>
<path d="M623.433 583.288L664.772 505.686C664.772 505.686 702.947 528.575 716.689 557.589C734.795 589.219 733.158 629.045 733.158 629.045L644.701 622.008C644.701 622.008 644.141 608.376 640.339 600.844C636.049 592.346 623.433 583.288 623.433 583.288Z" fill="black"/>
<path d="M623.433 583.288L664.772 505.686C664.772 505.686 702.947 528.575 716.689 557.589C734.795 589.219 733.158 629.045 733.158 629.045L644.701 622.008C644.701 622.008 644.141 608.376 640.339 600.844C636.049 592.346 623.433 583.288 623.433 583.288Z" fill="black"/>
<path d="M623.433 583.288L664.772 505.686C664.772 505.686 702.947 528.575 716.689 557.589C734.795 589.219 733.158 629.045 733.158 629.045L644.701 622.008C644.701 622.008 644.141 608.376 640.339 600.844C636.049 592.346 623.433 583.288 623.433 583.288Z" fill="black"/>
<path d="M623.433 583.288L664.772 505.686C664.772 505.686 702.947 528.575 716.689 557.589C734.795 589.219 733.158 629.045 733.158 629.045L644.701 622.008C644.701 622.008 644.141 608.376 640.339 600.844C636.049 592.346 623.433 583.288 623.433 583.288Z" fill="black"/>
<path d="M623.433 583.288L664.772 505.686C664.772 505.686 702.947 528.575 716.689 557.589C734.795 589.219 733.158 629.045 733.158 629.045L644.701 622.008C644.701 622.008 644.141 608.376 640.339 600.844C636.049 592.346 623.433 583.288 623.433 583.288Z" stroke="black"/>
<path d="M558.479 620.413L470.604 623.414C470.604 623.414 471.339 578.909 489.595 552.5C507.935 521.006 543.243 502.51 543.243 502.51L581.378 582.634C581.378 582.634 569.852 589.936 565.23 596.994C560.015 604.958 558.479 620.413 558.479 620.413Z" fill="black"/>
<path d="M558.479 620.413L470.604 623.414C470.604 623.414 471.339 578.909 489.595 552.5C507.935 521.006 543.243 502.51 543.243 502.51L581.378 582.634C581.378 582.634 569.852 589.936 565.23 596.994C560.015 604.958 558.479 620.413 558.479 620.413Z" fill="black"/>
<path d="M558.479 620.413L470.604 623.414C470.604 623.414 471.339 578.909 489.595 552.5C507.935 521.006 543.243 502.51 543.243 502.51L581.378 582.634C581.378 582.634 569.852 589.936 565.23 596.994C560.015 604.958 558.479 620.413 558.479 620.413Z" fill="black"/>
<path d="M558.479 620.413L470.604 623.414C470.604 623.414 471.339 578.909 489.595 552.5C507.935 521.006 543.243 502.51 543.243 502.51L581.378 582.634C581.378 582.634 569.852 589.936 565.23 596.994C560.015 604.958 558.479 620.413 558.479 620.413Z" fill="black"/>
<path d="M558.479 620.413L470.604 623.414C470.604 623.414 471.339 578.909 489.595 552.5C507.935 521.006 543.243 502.51 543.243 502.51L581.378 582.634C581.378 582.634 569.852 589.936 565.23 596.994C560.015 604.958 558.479 620.413 558.479 620.413Z" fill="black"/>
<path d="M558.479 620.413L470.604 623.414C470.604 623.414 471.339 578.909 489.595 552.5C507.935 521.006 543.243 502.51 543.243 502.51L581.378 582.634C581.378 582.634 569.852 589.936 565.23 596.994C560.015 604.958 558.479 620.413 558.479 620.413Z" stroke="black"/>
<path d="M624.185 655.211L670.721 729.812C670.721 729.812 631.811 751.428 599.812 748.823C563.367 748.687 529.695 727.357 529.695 727.357L580.018 654.27C580.018 654.27 592.104 660.6 600.528 661.074C610.032 661.608 624.185 655.211 624.185 655.211Z" fill="black"/>
<path d="M624.185 655.211L670.721 729.812C670.721 729.812 631.811 751.428 599.812 748.823C563.367 748.687 529.695 727.357 529.695 727.357L580.018 654.27C580.018 654.27 592.104 660.6 600.528 661.074C610.032 661.608 624.185 655.211 624.185 655.211Z" fill="black"/>
<path d="M624.185 655.211L670.721 729.812C670.721 729.812 631.811 751.428 599.812 748.823C563.367 748.687 529.695 727.357 529.695 727.357L580.018 654.27C580.018 654.27 592.104 660.6 600.528 661.074C610.032 661.608 624.185 655.211 624.185 655.211Z" fill="black"/>
<path d="M624.185 655.211L670.721 729.812C670.721 729.812 631.811 751.428 599.812 748.823C563.367 748.687 529.695 727.357 529.695 727.357L580.018 654.27C580.018 654.27 592.104 660.6 600.528 661.074C610.032 661.608 624.185 655.211 624.185 655.211Z" fill="black"/>
<path d="M624.185 655.211L670.721 729.812C670.721 729.812 631.811 751.428 599.812 748.823C563.367 748.687 529.695 727.357 529.695 727.357L580.018 654.27C580.018 654.27 592.104 660.6 600.528 661.074C610.032 661.608 624.185 655.211 624.185 655.211Z" fill="black"/>
<path d="M624.185 655.211L670.721 729.812C670.721 729.812 631.811 751.428 599.812 748.823C563.367 748.687 529.695 727.357 529.695 727.357L580.018 654.27C580.018 654.27 592.104 660.6 600.528 661.074C610.032 661.608 624.185 655.211 624.185 655.211Z" stroke="black"/>
<rect x="37" y="40" width="736" height="338" rx="30" fill="#333533" stroke="black" stroke-width="15"/>
<rect x="79.5" y="501.5" width="258" height="258" rx="22.5" fill="#C83939" stroke="black" stroke-width="15"/>
<mask id="path-11-inside-1_137_940" fill="white">
<path d="M229.223 545.704C230.57 539.435 236.773 535.384 242.855 537.411C263.299 544.224 281.265 557.173 294.218 574.626C309.488 595.201 316.748 620.63 314.644 646.165C312.539 671.701 301.213 695.598 282.781 713.395C264.349 731.193 240.07 741.674 214.476 742.883C188.882 744.091 163.723 735.944 143.696 719.963C123.669 703.981 110.142 681.258 105.641 656.034C101.14 630.81 105.971 604.811 119.235 582.888C130.486 564.292 147.151 549.708 166.862 541C172.727 538.409 179.283 541.857 181.215 547.97V547.97C183.146 554.084 179.706 560.533 173.925 563.305C159.564 570.19 147.429 581.138 139.099 594.907C128.755 612.005 124.986 632.283 128.497 651.955C132.008 671.628 142.558 689.351 158.177 701.815C173.797 714.28 193.42 720.634 213.381 719.691C233.342 718.749 252.278 710.574 266.654 696.693C281.03 682.813 289.863 664.175 291.505 644.258C293.146 624.342 287.484 604.51 275.574 588.463C265.984 575.541 252.871 565.785 237.926 560.283C231.909 558.068 227.877 551.972 229.223 545.704V545.704Z"/>
</mask>
<path d="M229.223 545.704C230.57 539.435 236.773 535.384 242.855 537.411C263.299 544.224 281.265 557.173 294.218 574.626C309.488 595.201 316.748 620.63 314.644 646.165C312.539 671.701 301.213 695.598 282.781 713.395C264.349 731.193 240.07 741.674 214.476 742.883C188.882 744.091 163.723 735.944 143.696 719.963C123.669 703.981 110.142 681.258 105.641 656.034C101.14 630.81 105.971 604.811 119.235 582.888C130.486 564.292 147.151 549.708 166.862 541C172.727 538.409 179.283 541.857 181.215 547.97V547.97C183.146 554.084 179.706 560.533 173.925 563.305C159.564 570.19 147.429 581.138 139.099 594.907C128.755 612.005 124.986 632.283 128.497 651.955C132.008 671.628 142.558 689.351 158.177 701.815C173.797 714.28 193.42 720.634 213.381 719.691C233.342 718.749 252.278 710.574 266.654 696.693C281.03 682.813 289.863 664.175 291.505 644.258C293.146 624.342 287.484 604.51 275.574 588.463C265.984 575.541 252.871 565.785 237.926 560.283C231.909 558.068 227.877 551.972 229.223 545.704V545.704Z" fill="black" stroke="black" stroke-width="2" mask="url(#path-11-inside-1_137_940)"/>
<line x1="207" y1="529" x2="207" y2="623" stroke="black" stroke-width="30" stroke-linecap="round"/>
<path d="M438.411 266.337C428.793 266.337 421.427 265.007 416.311 262.347C411.298 259.585 408.792 256.669 408.792 253.6L421.376 243.01H455.292L465.881 263.882C460.459 265.519 451.302 266.337 438.411 266.337ZM471.252 261.58L458.975 239.788V224.748L471.866 214.312C477.289 220.553 480 228.124 480 237.025C480 246.438 477.084 254.623 471.252 261.58ZM471.866 206.025L458.975 195.589V179.322L470.332 157.376C472.582 159.934 474.219 161.98 475.242 163.515C476.368 165.05 477.442 167.352 478.465 170.421C479.488 173.49 480 176.918 480 180.703C480 191.343 477.289 199.784 471.866 206.025ZM449.767 220.451H426.747L411.554 209.094C412.372 206.537 414.521 204.337 418 202.495C421.478 200.551 425.519 199.579 430.123 199.579H449.767C450.483 199.579 451.199 199.682 451.916 199.886C452.734 200.091 453.45 200.296 454.064 200.5C454.678 200.603 455.445 200.961 456.366 201.575C457.389 202.188 458.157 202.649 458.668 202.956C459.282 203.263 460.305 203.877 461.737 204.797C463.17 205.718 464.244 206.434 464.96 206.946L468.337 209.094V210.783L464.96 212.931C464.346 213.238 463.17 214.005 461.431 215.233C459.794 216.358 458.668 217.075 458.054 217.382C457.44 217.689 456.52 218.2 455.292 218.916C454.064 219.53 453.041 219.939 452.223 220.144C451.404 220.349 450.586 220.451 449.767 220.451ZM453.757 177.327H421.836L408.178 167.658C409.099 164.078 412.117 160.906 417.232 158.144C422.348 155.381 429.151 154 437.643 154C450.125 154 458.975 154.818 464.193 156.455L453.757 177.327Z" fill="black"/>
<path d="M357.631 266.337C348.014 266.337 340.647 265.007 335.532 262.347C330.519 259.585 328.012 256.669 328.012 253.6L340.596 243.01H374.512L385.101 263.882C379.679 265.519 370.522 266.337 357.631 266.337ZM390.473 261.58L378.195 239.788V224.748L391.087 214.312C396.509 220.553 399.22 228.124 399.22 237.025C399.22 246.438 396.304 254.623 390.473 261.58ZM391.087 206.025L378.195 195.589V179.322L389.552 157.376C391.803 159.934 393.44 161.98 394.463 163.515C395.588 165.05 396.663 167.352 397.686 170.421C398.709 173.49 399.22 176.918 399.22 180.703C399.22 191.343 396.509 199.784 391.087 206.025ZM368.987 220.451H345.967L330.774 209.094C331.593 206.537 333.741 204.337 337.22 202.495C340.698 200.551 344.74 199.579 349.344 199.579H368.987C369.704 199.579 370.42 199.682 371.136 199.886C371.954 200.091 372.671 200.296 373.284 200.5C373.898 200.603 374.666 200.961 375.586 201.575C376.61 202.188 377.377 202.649 377.888 202.956C378.502 203.263 379.525 203.877 380.958 204.797C382.39 205.718 383.464 206.434 384.181 206.946L387.557 209.094V210.783L384.181 212.931C383.567 213.238 382.39 214.005 380.651 215.233C379.014 216.358 377.888 217.075 377.275 217.382C376.661 217.689 375.74 218.2 374.512 218.916C373.284 219.53 372.261 219.939 371.443 220.144C370.624 220.349 369.806 220.451 368.987 220.451ZM372.978 177.327H341.057L327.398 167.658C328.319 164.078 331.337 160.906 336.453 158.144C341.568 155.381 348.372 154 356.864 154C369.346 154 378.195 154.818 383.413 156.455L372.978 177.327Z" fill="black"/>
<path d="M316.682 263.422C314.738 265.366 312.436 266.338 309.776 266.338C307.116 266.338 304.814 265.366 302.87 263.422C300.926 261.478 299.954 259.176 299.954 256.516C299.954 253.856 300.926 251.554 302.87 249.61C304.814 247.666 307.116 246.694 309.776 246.694C312.436 246.694 314.738 247.666 316.682 249.61C318.626 251.554 319.598 253.856 319.598 256.516C319.598 259.176 318.626 261.478 316.682 263.422Z" fill="black"/>
<path d="M250.175 266.337C240.557 266.337 233.191 265.007 228.075 262.347C223.062 259.585 220.556 256.669 220.556 253.6L233.14 243.01H267.056L277.645 263.882C272.223 265.519 263.066 266.337 250.175 266.337ZM283.016 261.58L270.739 239.788V224.748L283.63 214.312C289.053 220.553 291.764 228.124 291.764 237.025C291.764 246.438 288.848 254.623 283.016 261.58ZM283.63 206.025L270.739 195.589V179.322L282.096 157.376C284.346 159.934 285.983 161.98 287.007 163.515C288.132 165.05 289.206 167.352 290.229 170.421C291.252 173.49 291.764 176.918 291.764 180.703C291.764 191.343 289.053 199.784 283.63 206.025ZM261.531 220.451H238.511L223.318 209.094C224.137 206.537 226.285 204.337 229.764 202.495C233.242 200.551 237.283 199.579 241.887 199.579H261.531C262.247 199.579 262.963 199.682 263.68 199.886C264.498 200.091 265.214 200.296 265.828 200.5C266.442 200.603 267.209 200.961 268.13 201.575C269.153 202.188 269.921 202.649 270.432 202.956C271.046 203.263 272.069 203.877 273.502 204.797C274.934 205.718 276.008 206.434 276.724 206.946L280.101 209.094V210.783L276.724 212.931C276.11 213.238 274.934 214.005 273.195 215.233C271.558 216.358 270.432 217.075 269.818 217.382C269.204 217.689 268.284 218.2 267.056 218.916C265.828 219.53 264.805 219.939 263.987 220.144C263.168 220.349 262.35 220.451 261.531 220.451ZM265.521 177.327H233.6L219.942 167.658C220.863 164.078 223.881 160.906 228.996 158.144C234.112 155.381 240.915 154 249.407 154C261.889 154 270.739 154.818 275.957 156.455L265.521 177.327Z" fill="black"/>
<path d="M171.474 266.337C158.48 266.337 148.914 264.496 142.776 260.813L154.593 243.01H194.34L207.999 252.679C206.771 256.669 203.139 259.943 197.103 262.501C191.169 265.058 182.626 266.337 171.474 266.337ZM203.855 205.104L190.504 196.817V179.322L202.474 162.594C208.51 167.607 211.529 174.513 211.529 183.312C211.529 192.008 208.971 199.273 203.855 205.104ZM158.276 220.451C157.457 220.451 156.639 220.349 155.82 220.144C155.002 219.939 153.979 219.53 152.751 218.916C151.523 218.2 150.602 217.689 149.989 217.382C149.375 217.075 148.198 216.358 146.459 215.233C144.822 214.005 143.696 213.238 143.083 212.931L139.706 210.783V209.094L143.083 206.946C143.799 206.434 144.873 205.718 146.305 204.797C147.738 203.877 148.71 203.263 149.221 202.956C149.835 202.649 150.602 202.188 151.523 201.575C152.546 200.961 153.365 200.603 153.979 200.5C154.593 200.296 155.258 200.091 155.974 199.886C156.792 199.682 157.56 199.579 158.276 199.579H181.296C182.012 199.579 182.728 199.682 183.444 199.886C184.263 200.091 184.979 200.296 185.593 200.5C186.207 200.603 186.974 200.961 187.895 201.575C188.918 202.188 189.685 202.649 190.197 202.956C190.811 203.263 191.834 203.877 193.266 204.797C194.698 205.718 195.773 206.434 196.489 206.946L199.865 209.094V210.783L196.489 212.931C195.875 213.238 194.698 214.005 192.959 215.233C191.322 216.358 190.197 217.075 189.583 217.382C188.969 217.689 188.048 218.2 186.821 218.916C185.593 219.53 184.57 219.939 183.751 220.144C182.933 220.349 182.114 220.451 181.296 220.451H158.276ZM137.251 257.436C134.489 254.572 132.442 251.605 131.112 248.535C129.782 245.364 129.117 241.22 129.117 236.104C129.117 227.101 131.521 220.093 136.33 215.08L150.142 224.288V239.634L137.251 257.436ZM185.439 177.327H150.142L136.484 167.658C139.144 158.553 149.784 154 168.405 154C180.068 154 189.685 155.893 197.256 159.678L185.439 177.327Z" fill="black"/>
<path d="M110.268 263.882L99.3715 252.065V226.283L112.263 215.847C117.583 221.883 120.243 229.557 120.243 238.867C120.243 243.369 119.68 247.359 118.555 250.837C117.429 254.316 116.304 256.822 115.179 258.357C114.053 259.892 112.416 261.733 110.268 263.882ZM63 162.134C65.6601 159.883 69.0363 157.99 73.1288 156.455C77.3235 154.818 81.2113 154 84.7922 154C88.3731 154 92.2609 154.767 96.4556 156.302C100.65 157.734 103.873 160.087 106.124 163.361L95.2279 175.025H73.4357L63 162.134ZM112.263 210.629L99.3715 200.193V178.094L110.728 165.663C113.49 168.733 115.383 171.035 116.406 172.569C117.429 174.002 118.35 175.946 119.169 178.401C119.987 180.857 120.396 183.824 120.396 187.302C120.396 196.612 117.685 204.388 112.263 210.629Z" fill="black"/>
<path d="M753.062 169.196L712.519 270H669.396L628.854 169.196H671.608L691.879 223.192L713.625 169.196H753.062Z" fill="black"/>
<path d="M629.495 236.275V269.999H511V243.278L569.971 174.724H512.843V141H626.546V167.721L567.575 236.275H629.495Z" fill="black"/>
</svg>
