<svg width="417" height="417" viewBox="0 0 417 417" fill="none" xmlns="http://www.w3.org/2000/svg">
<rect width="417" height="417" fill="#FFDF00"/>
<path d="M80.407 201.605C83.8867 217.625 96.5876 240.34 96.5876 240.34L91.663 264.286L102.919 289.641L126.838 307.248L141.612 312.178V349.505L157.089 360.774L173.973 365H244.323L261.208 360.774L277.388 349.505V312.178L291.458 307.248L314.674 289.641L325.93 264.286L323.116 240.34C323.116 240.34 334.549 217.446 337.889 201.605C341.242 185.706 342.129 176.16 340 160.051C337.469 140.905 333.145 130.073 323.116 113.568C313.714 98.0968 306.519 90.0863 292.162 79.0583C278.418 68.5018 269.146 64.2899 252.765 58.6339C244.702 55.8497 240.065 54.4607 231.66 52.9996C215.42 50.1762 205.728 50.3993 189.45 52.9996C180.501 54.4292 175.516 55.7108 166.938 58.6339C150.765 64.1449 141.959 68.8668 128.245 79.0583C113.264 90.191 104.979 97.6828 95.1805 113.568C85.0898 129.928 81.5844 141.005 79 160.051C76.8168 176.141 76.9606 185.738 80.407 201.605Z" stroke="black" stroke-width="15"/>
<path d="M193 238.855C193 254.166 169.644 268 151.981 268C134.318 268 120 260.892 120 239.566C120 224.255 139.467 209 158.933 209C176.596 209 193 215.042 193 238.855Z" fill="black"/>
<path d="M228 238.855C228 254.166 251.676 268 269.581 268C287.485 268 302 260.892 302 239.566C302 224.255 282.267 209 262.533 209C244.629 209 228 215.042 228 238.855Z" fill="black"/>
<path d="M208.252 276.147C209.014 274.775 210.986 274.775 211.748 276.147L228.349 306.029C229.09 307.362 228.126 309 226.601 309H193.399C191.874 309 190.91 307.362 191.651 306.029L208.252 276.147Z" fill="black"/>
</svg>
