<svg width="189" height="40" viewBox="0 0 189 40" fill="none" xmlns="http://www.w3.org/2000/svg">
<path fill-rule="evenodd" clip-rule="evenodd" d="M34.4927 3.86032C34.4927 3.86032 35.8165 3.86032 47.216 3.86032C58.6155 3.86032 64.6707 12.8112 64.6707 20.0185C64.6707 27.2258 58.6277 36.1153 47.216 36.1153H34.4927V3.86032ZM40.5969 9.90122V30.1235H47.216C54.3498 30.1235 58.5174 25.1508 58.5174 20.0308C58.5174 14.9107 54.3621 9.90122 47.216 9.90122C40.0698 9.90122 40.5969 9.90122 40.5969 9.90122Z" fill="#FAFAFA"/>
<path fill-rule="evenodd" clip-rule="evenodd" d="M82.0641 3.82349C92.9733 3.82349 98.0111 10.8712 98.0111 15.9176H92.1643C92.1643 14.6161 89.2347 9.87666 82.0641 9.87666C75.3715 9.87666 71.9394 14.4565 71.9394 20.0062C71.9394 25.556 75.9108 30.1358 82.0641 30.1358C89.8599 30.1358 92.1643 25.0771 92.1643 23.5055H98.0111C98.0111 23.5055 98.0111 36.1767 82.0641 36.1767C71.2162 36.1767 66.1048 27.0908 66.1048 19.9939C66.1048 12.8971 71.1549 3.82349 82.0641 3.82349Z" fill="#FAFAFA"/>
<path d="M17.3689 22.204L24.9073 18.8643C25.0176 18.8152 25.0789 18.717 25.0789 18.5942L25.1524 10.4783C25.1524 10.2696 24.9318 10.1222 24.7357 10.2082L17.2096 13.5356C17.0992 13.5847 17.038 13.6829 17.038 13.8057L16.9522 21.9339C16.9522 22.1426 17.1728 22.29 17.3689 22.204Z" fill="#FAFAFA"/>
<path d="M27.1381 4.22867C23.706 3.09907 20.1759 4.79347 17.516 6.70887C15.1748 8.391 12.8336 10.7116 10.6763 13.3146C10.7989 15.23 11.0073 17.9558 12.7233 20.6447C13.6549 19.2941 14.5374 18.1276 15.6774 16.777L15.7141 13.376C15.7141 13.0936 15.8857 12.8357 16.1554 12.7129L25.2995 8.67339C25.7898 8.45239 26.3537 8.80846 26.3537 9.3487C26.3537 9.3487 26.3537 21.6147 26.3414 25.7524C11.044 28.5519 9.85505 16.6174 9.57312 14.5178C9.377 13.0813 9.26669 11.4606 9.26669 9.64338H3.16244C3.16244 14.3337 3.82435 18.2382 5.06236 21.4059C3.29727 23.5424 0 31.5601 0 36.1153H6.10425C6.10425 32.6037 8.60478 27.6924 8.78864 27.3241C10.0634 28.6255 14.8316 33.5737 26.3292 31.8302V36.1153H32.4334V11.7307C32.4211 5.64067 27.1014 4.21639 27.1381 4.22867Z" fill="#FAFAFA"/>
</svg>
