<svg width="266" height="266" viewBox="0 0 266 266" fill="none" xmlns="http://www.w3.org/2000/svg">
<rect x="5" y="5" width="255.795" height="255.795" rx="30" fill="#FFDF00" stroke="black" stroke-width="10"/>
<path d="M83.6955 43.4046C85.9395 42.2024 89.6234 42.0729 95.3328 44.7179C100.946 47.3181 107.614 52.2195 114.9 59.2961C129.429 73.407 145.587 95.3507 159.762 121.808C173.936 148.265 183.254 173.873 186.954 193.786C188.809 203.772 189.196 212.039 188.251 218.152C187.291 224.371 185.142 227.367 182.899 228.569C180.655 229.771 176.97 229.9 171.261 227.255C165.648 224.655 158.98 219.753 151.693 212.677C137.164 198.566 121.007 176.623 106.832 150.165C92.6576 123.708 83.3391 98.1002 79.6398 78.187C77.7846 68.2007 77.3977 59.9342 78.3423 53.8207C79.303 47.6022 81.4516 44.6068 83.6955 43.4046Z" stroke="black" stroke-width="10"/>
<path d="M226.825 83.7359C225.623 81.492 222.628 79.3434 216.409 78.3827C210.296 77.4381 202.029 77.825 192.043 79.6802C172.13 83.3795 146.522 92.698 120.065 106.873C93.6075 121.047 71.6643 137.205 57.5534 151.734C50.477 159.02 45.5755 165.688 42.9752 171.301C40.3303 177.011 40.4589 180.695 41.6611 182.939C42.8633 185.183 45.8595 187.331 52.078 188.292C58.1914 189.236 66.4583 188.849 76.4443 186.994C96.3574 183.295 121.965 173.977 148.422 159.802C174.879 145.627 196.823 129.47 210.934 114.94C218.01 107.654 222.912 100.986 225.512 95.3732C228.157 89.6638 228.028 85.9799 226.825 83.7359Z" stroke="black" stroke-width="10"/>
<path d="M164.364 33.2133C166.872 33.9716 169.609 36.5265 171.811 42.4368C173.979 48.2553 175.264 56.4446 175.444 66.6067C175.802 86.8719 171.751 113.82 163.067 142.548C154.383 171.275 142.827 195.955 131.303 212.628C125.524 220.989 119.918 227.095 114.89 230.738C109.783 234.439 106.088 235.05 103.58 234.291C101.072 233.533 98.3353 230.978 96.1333 225.068C93.9654 219.25 92.6806 211.06 92.501 200.898C92.1429 180.633 96.1937 153.685 104.878 124.957C113.562 96.2301 125.117 71.5506 136.642 54.8773C142.421 46.5163 148.027 40.4101 153.055 36.7669C158.162 33.0663 161.856 32.4553 164.364 33.2133Z" stroke="black" stroke-width="10"/>
<path d="M31.8948 104.296C31.1366 106.805 31.7473 110.499 35.4481 115.606C39.0913 120.634 45.1975 126.241 53.5585 132.019C70.2317 143.544 94.9113 155.1 123.639 163.784C152.366 172.468 179.314 176.518 199.58 176.16C209.742 175.981 217.931 174.696 223.749 172.528C229.66 170.326 232.215 167.589 232.973 165.08C233.731 162.572 233.12 158.878 229.419 153.771C225.776 148.743 219.67 143.137 211.309 137.358C194.636 125.834 169.956 114.278 141.229 105.594C112.501 96.9101 85.5531 92.8594 65.2879 93.2175C55.1257 93.397 46.9365 94.6819 41.1179 96.8498C35.2079 99.0518 32.6532 101.788 31.8948 104.296Z" stroke="black" stroke-width="10"/>
<circle cx="78.7373" cy="64.631" r="10.8485" transform="rotate(16.8195 78.7373 64.631)" fill="black"/>
<circle cx="206.903" cy="78.4117" r="10.8485" transform="rotate(16.8195 206.903 78.4117)" fill="black"/>
<circle cx="92.4308" cy="209.17" r="10.8485" transform="rotate(16.8195 92.4308 209.17)" fill="black"/>
<circle cx="189.791" cy="202.589" r="10.8485" transform="rotate(16.8195 189.791 202.589)" fill="black"/>
<ellipse cx="132.21" cy="134.042" rx="17.3127" ry="16.928" transform="rotate(16.8195 132.21 134.042)" fill="black"/>
</svg>
