<svg width="163" height="209" viewBox="0 0 163 209" fill="none" xmlns="http://www.w3.org/2000/svg">
<g filter="url(#filter0_d_47_37)">
<path d="M11.7942 10.7074C11.9732 8.15367 15.2086 6.01766 15.2086 6.01766L148.806 7.32741C148.806 7.32741 152.152 9.52331 152.127 12.0832C152.102 14.643 150.99 16.5293 148.704 17.671C146.742 18.6513 143.091 17.6159 143.091 17.6159L142.738 53.5892C142.738 53.5892 146.4 52.6412 148.351 53.6442C150.965 54.9879 152.611 57.6375 151.653 60.4222L151.635 60.4764C151.038 62.213 150.551 63.6298 148.252 63.7617C145.93 63.8949 15.2009 62.4573 13.5326 62.4409C11.8643 62.4246 11.0792 60.0419 11.2185 57.6333C11.3578 55.2248 12.3008 53.1754 13.6318 52.3234C15.4799 51.1405 19.2451 52.3785 19.2451 52.3785L19.5978 16.4052C19.5978 16.4052 15.8181 17.5555 13.9845 16.3502C12.0127 15.0541 11.629 13.0659 11.7942 10.7074Z" stroke="#FFDF00" stroke-width="12" shape-rendering="crispEdges"/>
<path d="M142.595 68.2033L20.2245 67.0036L19.5853 132.205L141.956 133.405L142.595 68.2033Z" stroke="#FFDF00" stroke-width="12" shape-rendering="crispEdges"/>
<path d="M10.5158 141.11C10.5351 139.147 11.5853 136.565 12.8052 136.636C14.0251 136.706 145.652 137.938 147.525 137.956C149.398 137.975 151.01 139.405 150.984 142.1C150.957 144.795 150.345 144.312 149.158 145.676C147.138 147.994 141.823 146.895 141.823 146.895L141.46 183.992C141.46 183.992 147.334 182.836 149.307 185.193C150.468 186.58 150.553 186.773 150.397 188.577C150.176 191.127 146.974 194.165 146.974 194.165L12.2542 192.844C12.2542 192.844 9.55487 189.51 10.0639 187.201C10.4048 185.655 11.0518 184.763 12.3423 183.851C14.4926 182.33 19.0783 183.917 19.0783 183.917L19.453 145.695C19.453 145.695 14.806 147.233 12.717 145.629C11.1623 144.435 10.4966 143.074 10.5158 141.11Z" stroke="#FFDF00" stroke-width="12" shape-rendering="crispEdges"/>
</g>
<defs>
<filter id="filter0_d_47_37" x="0" y="0" width="162.127" height="208.188" filterUnits="userSpaceOnUse" color-interpolation-filters="sRGB">
<feFlood flood-opacity="0" result="BackgroundImageFix"/>
<feColorMatrix in="SourceAlpha" type="matrix" values="0 0 0 0 0 0 0 0 0 0 0 0 0 0 0 0 0 0 127 0" result="hardAlpha"/>
<feOffset dy="4"/>
<feGaussianBlur stdDeviation="2"/>
<feComposite in2="hardAlpha" operator="out"/>
<feColorMatrix type="matrix" values="0 0 0 0 0 0 0 0 0 0 0 0 0 0 0 0 0 0 0.25 0"/>
<feBlend mode="normal" in2="BackgroundImageFix" result="effect1_dropShadow_47_37"/>
<feBlend mode="normal" in="SourceGraphic" in2="effect1_dropShadow_47_37" result="shape"/>
</filter>
</defs>
</svg>
