<svg width="107" height="107" viewBox="0 0 107 107" fill="none" xmlns="http://www.w3.org/2000/svg">
<rect y="107" width="107" height="107" transform="rotate(-90 0 107)" fill="#FFDF00"/>
<path d="M58.92 100.696C51.752 100.696 45.096 99.5867 38.952 97.368C32.8934 95.064 27.6027 91.8213 23.08 87.64C18.6427 83.4587 15.1867 78.5093 12.712 72.792C10.2374 67.0747 9 60.76 9 53.848C9 46.936 10.2374 40.6213 12.712 34.904C15.1867 29.1867 18.6427 24.2373 23.08 20.056C27.6027 15.8747 32.8934 12.6747 38.952 10.456C45.096 8.152 51.752 7 58.92 7C67.7094 7 75.4747 8.536 82.216 11.608C89.0427 14.68 94.6747 19.1173 99.112 24.92L80.04 41.944C77.3947 38.616 74.4507 36.056 71.208 34.264C68.0507 32.3867 64.4667 31.448 60.4561 31.448C57.2987 31.448 54.44 31.96 51.88 32.984C49.32 34.008 47.1013 35.5013 45.224 37.464C43.432 39.4267 42.024 41.816 41 44.632C39.976 47.3627 39.4641 50.4347 39.4641 53.848C39.4641 57.2613 39.976 60.376 41 63.192C42.024 65.9227 43.432 68.2693 45.224 70.232C47.1013 72.1947 49.32 73.688 51.88 74.712C54.44 75.736 57.2987 76.248 60.4561 76.248C64.4667 76.248 68.0507 75.352 71.208 73.56C74.4507 71.6827 77.3947 69.08 80.04 65.752L99.112 82.776C94.6747 88.4933 89.0427 92.9307 82.216 96.088C75.4747 99.16 67.7094 100.696 58.92 100.696Z" fill="black"/>
</svg>
