<svg width="417" height="417" viewBox="0 0 417 417" fill="none" xmlns="http://www.w3.org/2000/svg">
<rect width="417" height="417" fill="black"/>
<path d="M328.548 186.802L328.548 252.995L274.963 285.567L219.276 255.097L161.488 285.567L104.751 252.995L104.751 186.802L161.488 157.382L219.277 186.802L274.963 157.382L328.548 186.802Z" fill="#FFDF00"/>
<path d="M328.548 186.802L328.548 252.995L274.963 285.567L219.276 255.097M328.548 186.802L274.963 157.382M328.548 186.802L387.387 153.18M219.276 255.097L219.276 186.802M219.276 255.097L161.488 285.567M219.276 186.802L274.963 157.382M219.276 186.802L161.488 157.382L104.751 186.802M274.963 157.382L274.963 108M161.488 285.567L104.751 252.995M161.488 285.567L161.488 336M104.751 252.995L104.751 186.802M104.751 252.995L48.0138 288.719M104.751 186.802L48.0138 153.18" stroke="#FFDF00" stroke-width="7"/>
<circle cx="378.982" cy="157.383" r="19.4631" transform="rotate(-180 378.982 157.383)" fill="#FFDF00" stroke="#FFDF00"/>
<circle cx="51.1659" cy="153.18" r="19.4631" transform="rotate(-180 51.1659 153.18)" fill="#FFDF00" stroke="#FFDF00"/>
<circle cx="46.9631" cy="287.668" r="19.4631" transform="rotate(-180 46.9631 287.668)" fill="#FFDF00" stroke="#FFDF00"/>
</svg>
