<svg width="1724" height="303" viewBox="0 0 1724 303" fill="none" xmlns="http://www.w3.org/2000/svg">
<rect x="-8" y="10.5" width="1099" height="278" fill="#FFDF00"/>
<path d="M-134 290.409C-134 290.409 -7.80059 278.092 43.9355 219.723C138.997 112.474 207.321 15.217 336.432 12.5367C465.262 9.86223 548.492 153.91 636.241 234.353C697.12 290.164 797.114 290.416 797.114 290.416" stroke="black" stroke-width="25" stroke-linecap="round"/>
<path d="M-134 12.5438C-134 12.5438 -7.80059 24.8614 43.9355 83.2303C138.997 190.479 207.321 287.736 336.432 290.416C465.262 293.091 548.492 149.044 636.241 68.5997C697.12 12.7889 801.989 12.5444 801.989 12.5444" stroke="black" stroke-width="25" stroke-linecap="round"/>
<path d="M326.682 49.105V258.728" stroke="black" stroke-width="25" stroke-linecap="round"/>
<path d="M404.681 63.73V236.791" stroke="black" stroke-width="25" stroke-linecap="round"/>
<path d="M470.493 119.791V183.165" stroke="black" stroke-width="25" stroke-linecap="round"/>
<path d="M255.996 63.73V234.354" stroke="black" stroke-width="25" stroke-linecap="round"/>
<path d="M187.746 124.666V185.604" stroke="black" stroke-width="25" stroke-linecap="round"/>
<path d="M12.2484 119.791V180.729" stroke="black" stroke-width="25" stroke-linecap="round"/>
<path d="M645.991 114.917V185.603" stroke="black" stroke-width="25" stroke-linecap="round"/>
<path d="M714.24 61.2925V246.541" stroke="black" stroke-width="25" stroke-linecap="round"/>
<path d="M787.365 46.6675V253.853" stroke="black" stroke-width="25" stroke-linecap="round"/>
<path d="M789.802 290.452C789.802 290.452 903.814 278.134 955.55 219.765C1050.61 112.517 1118.94 15.2595 1248.05 12.5792C1376.88 9.90471 1460.11 153.952 1547.86 234.396C1608.73 290.207 1711.17 290.452 1711.17 290.452" stroke="black" stroke-width="25" stroke-linecap="round"/>
<path d="M794.677 12.5863C794.677 12.5863 903.814 24.9039 955.55 83.2727C1050.61 190.522 1118.94 287.779 1248.05 290.459C1376.88 293.133 1460.11 149.086 1547.86 68.6422C1608.73 12.8314 1711.17 12.5863 1711.17 12.5863" stroke="black" stroke-width="25" stroke-linecap="round"/>
<path d="M1238.3 49.1499V258.773" stroke="black" stroke-width="25" stroke-linecap="round"/>
<path d="M1316.3 63.7749V236.836" stroke="black" stroke-width="25" stroke-linecap="round"/>
<path d="M1382.11 119.791V183.165" stroke="black" stroke-width="25" stroke-linecap="round"/>
<path d="M1167.61 63.7749V234.399" stroke="black" stroke-width="25" stroke-linecap="round"/>
<path d="M1099.36 124.666V185.604" stroke="black" stroke-width="25" stroke-linecap="round"/>
<path d="M862.926 66.2124V231.961" stroke="black" stroke-width="25" stroke-linecap="round"/>
<path d="M933.613 117.399V178.337" stroke="black" stroke-width="25" stroke-linecap="round"/>
<path d="M1557.61 114.917V185.603" stroke="black" stroke-width="25" stroke-linecap="round"/>
<path d="M1625.85 61.3374V246.586" stroke="black" stroke-width="25" stroke-linecap="round"/>
<path d="M1698.98 46.7124V253.898" stroke="black" stroke-width="25" stroke-linecap="round"/>
</svg>
