<svg width="834" height="887" viewBox="0 0 834 887" fill="none" xmlns="http://www.w3.org/2000/svg">
<rect width="834" height="417" fill="#FFDF00"/>
<rect y="417" width="417" height="417" fill="#FFDF00"/>
<rect x="417" y="417" width="417" height="417" fill="#FFDF00"/>
<circle cx="601.56" cy="618.56" r="155.238" transform="rotate(-171.248 601.56 618.56)" stroke="black" stroke-width="30"/>
<ellipse cx="601.557" cy="618.88" rx="30.9969" ry="29.8303" transform="rotate(-171.248 601.557 618.88)" fill="black"/>
<path d="M623.433 583.288L664.772 505.686C664.772 505.686 702.947 528.575 716.689 557.589C734.795 589.219 733.158 629.045 733.158 629.045L644.701 622.008C644.701 622.008 644.141 608.376 640.339 600.844C636.049 592.346 623.433 583.288 623.433 583.288Z" fill="black"/>
<path d="M623.433 583.288L664.772 505.686C664.772 505.686 702.947 528.575 716.689 557.589C734.795 589.219 733.158 629.045 733.158 629.045L644.701 622.008C644.701 622.008 644.141 608.376 640.339 600.844C636.049 592.346 623.433 583.288 623.433 583.288Z" fill="black"/>
<path d="M623.433 583.288L664.772 505.686C664.772 505.686 702.947 528.575 716.689 557.589C734.795 589.219 733.158 629.045 733.158 629.045L644.701 622.008C644.701 622.008 644.141 608.376 640.339 600.844C636.049 592.346 623.433 583.288 623.433 583.288Z" fill="black"/>
<path d="M623.433 583.288L664.772 505.686C664.772 505.686 702.947 528.575 716.689 557.589C734.795 589.219 733.158 629.045 733.158 629.045L644.701 622.008C644.701 622.008 644.141 608.376 640.339 600.844C636.049 592.346 623.433 583.288 623.433 583.288Z" fill="black"/>
<path d="M623.433 583.288L664.772 505.686C664.772 505.686 702.947 528.575 716.689 557.589C734.795 589.219 733.158 629.045 733.158 629.045L644.701 622.008C644.701 622.008 644.141 608.376 640.339 600.844C636.049 592.346 623.433 583.288 623.433 583.288Z" fill="black"/>
<path d="M623.433 583.288L664.772 505.686C664.772 505.686 702.947 528.575 716.689 557.589C734.795 589.219 733.158 629.045 733.158 629.045L644.701 622.008C644.701 622.008 644.141 608.376 640.339 600.844C636.049 592.346 623.433 583.288 623.433 583.288Z" stroke="black"/>
<path d="M558.479 620.413L470.604 623.414C470.604 623.414 471.339 578.909 489.595 552.5C507.935 521.006 543.243 502.51 543.243 502.51L581.378 582.634C581.378 582.634 569.852 589.936 565.23 596.994C560.015 604.958 558.479 620.413 558.479 620.413Z" fill="black"/>
<path d="M558.479 620.413L470.604 623.414C470.604 623.414 471.339 578.909 489.595 552.5C507.935 521.006 543.243 502.51 543.243 502.51L581.378 582.634C581.378 582.634 569.852 589.936 565.23 596.994C560.015 604.958 558.479 620.413 558.479 620.413Z" fill="black"/>
<path d="M558.479 620.413L470.604 623.414C470.604 623.414 471.339 578.909 489.595 552.5C507.935 521.006 543.243 502.51 543.243 502.51L581.378 582.634C581.378 582.634 569.852 589.936 565.23 596.994C560.015 604.958 558.479 620.413 558.479 620.413Z" fill="black"/>
<path d="M558.479 620.413L470.604 623.414C470.604 623.414 471.339 578.909 489.595 552.5C507.935 521.006 543.243 502.51 543.243 502.51L581.378 582.634C581.378 582.634 569.852 589.936 565.23 596.994C560.015 604.958 558.479 620.413 558.479 620.413Z" fill="black"/>
<path d="M558.479 620.413L470.604 623.414C470.604 623.414 471.339 578.909 489.595 552.5C507.935 521.006 543.243 502.51 543.243 502.51L581.378 582.634C581.378 582.634 569.852 589.936 565.23 596.994C560.015 604.958 558.479 620.413 558.479 620.413Z" fill="black"/>
<path d="M558.479 620.413L470.604 623.414C470.604 623.414 471.339 578.909 489.595 552.5C507.935 521.006 543.243 502.51 543.243 502.51L581.378 582.634C581.378 582.634 569.852 589.936 565.23 596.994C560.015 604.958 558.479 620.413 558.479 620.413Z" stroke="black"/>
<path d="M624.185 655.211L670.721 729.812C670.721 729.812 631.811 751.428 599.812 748.823C563.367 748.687 529.695 727.357 529.695 727.357L580.018 654.27C580.018 654.27 592.104 660.6 600.528 661.074C610.032 661.608 624.185 655.211 624.185 655.211Z" fill="black"/>
<path d="M624.185 655.211L670.721 729.812C670.721 729.812 631.811 751.428 599.812 748.823C563.367 748.687 529.695 727.357 529.695 727.357L580.018 654.27C580.018 654.27 592.104 660.6 600.528 661.074C610.032 661.608 624.185 655.211 624.185 655.211Z" fill="black"/>
<path d="M624.185 655.211L670.721 729.812C670.721 729.812 631.811 751.428 599.812 748.823C563.367 748.687 529.695 727.357 529.695 727.357L580.018 654.27C580.018 654.27 592.104 660.6 600.528 661.074C610.032 661.608 624.185 655.211 624.185 655.211Z" fill="black"/>
<path d="M624.185 655.211L670.721 729.812C670.721 729.812 631.811 751.428 599.812 748.823C563.367 748.687 529.695 727.357 529.695 727.357L580.018 654.27C580.018 654.27 592.104 660.6 600.528 661.074C610.032 661.608 624.185 655.211 624.185 655.211Z" fill="black"/>
<path d="M624.185 655.211L670.721 729.812C670.721 729.812 631.811 751.428 599.812 748.823C563.367 748.687 529.695 727.357 529.695 727.357L580.018 654.27C580.018 654.27 592.104 660.6 600.528 661.074C610.032 661.608 624.185 655.211 624.185 655.211Z" fill="black"/>
<path d="M624.185 655.211L670.721 729.812C670.721 729.812 631.811 751.428 599.812 748.823C563.367 748.687 529.695 727.357 529.695 727.357L580.018 654.27C580.018 654.27 592.104 660.6 600.528 661.074C610.032 661.608 624.185 655.211 624.185 655.211Z" stroke="black"/>
<rect x="37" y="40" width="736" height="338" rx="30" fill="#333533" stroke="black" stroke-width="15"/>
<rect x="79.5" y="501.5" width="258" height="258" rx="22.5" fill="#C83939" stroke="black" stroke-width="15"/>
<mask id="path-11-inside-1_106_885" fill="white">
<path d="M229.223 545.704C230.57 539.435 236.773 535.384 242.855 537.411C263.299 544.224 281.265 557.173 294.218 574.626C309.488 595.201 316.748 620.63 314.644 646.165C312.539 671.701 301.213 695.598 282.781 713.395C264.349 731.193 240.07 741.674 214.476 742.883C188.882 744.091 163.723 735.944 143.696 719.963C123.669 703.981 110.142 681.258 105.641 656.034C101.14 630.81 105.971 604.811 119.235 582.888C130.486 564.292 147.151 549.708 166.862 541C172.727 538.409 179.283 541.857 181.215 547.97V547.97C183.146 554.084 179.706 560.533 173.925 563.305C159.564 570.19 147.429 581.138 139.099 594.907C128.755 612.005 124.986 632.283 128.497 651.955C132.008 671.628 142.558 689.351 158.177 701.815C173.797 714.28 193.42 720.634 213.381 719.691C233.342 718.749 252.278 710.574 266.654 696.693C281.03 682.813 289.863 664.175 291.505 644.258C293.146 624.342 287.484 604.51 275.574 588.463C265.984 575.541 252.871 565.785 237.926 560.283C231.909 558.068 227.877 551.972 229.223 545.704V545.704Z"/>
</mask>
<path d="M229.223 545.704C230.57 539.435 236.773 535.384 242.855 537.411C263.299 544.224 281.265 557.173 294.218 574.626C309.488 595.201 316.748 620.63 314.644 646.165C312.539 671.701 301.213 695.598 282.781 713.395C264.349 731.193 240.07 741.674 214.476 742.883C188.882 744.091 163.723 735.944 143.696 719.963C123.669 703.981 110.142 681.258 105.641 656.034C101.14 630.81 105.971 604.811 119.235 582.888C130.486 564.292 147.151 549.708 166.862 541C172.727 538.409 179.283 541.857 181.215 547.97V547.97C183.146 554.084 179.706 560.533 173.925 563.305C159.564 570.19 147.429 581.138 139.099 594.907C128.755 612.005 124.986 632.283 128.497 651.955C132.008 671.628 142.558 689.351 158.177 701.815C173.797 714.28 193.42 720.634 213.381 719.691C233.342 718.749 252.278 710.574 266.654 696.693C281.03 682.813 289.863 664.175 291.505 644.258C293.146 624.342 287.484 604.51 275.574 588.463C265.984 575.541 252.871 565.785 237.926 560.283C231.909 558.068 227.877 551.972 229.223 545.704V545.704Z" fill="black" stroke="black" stroke-width="2" mask="url(#path-11-inside-1_106_885)"/>
<line x1="207" y1="529" x2="207" y2="623" stroke="black" stroke-width="30" stroke-linecap="round"/>
</svg>
