<svg width="1920" height="220" viewBox="0 0 1920 220" fill="none" xmlns="http://www.w3.org/2000/svg">
<rect x="-314" y="170.5" width="3001" height="49.5" fill="#FFDF00"/>
<rect x="-314" width="3001" height="49.5" fill="#FFDF00"/>
<rect x="-314" y="49.5" width="3001" height="121" fill="#FFDF00"/>
<path d="M1304.99 0H1384.66L1299.98 49.3797H1226L1304.99 0Z" fill="black"/>
<path d="M1458.99 0H1538.66L1453.98 49.3797H1380L1458.99 0Z" fill="black"/>
<path d="M1920.99 0H2000.66L1915.98 49.3797H1842L1920.99 0Z" fill="black"/>
<path d="M1766.99 0H1846.66L1761.98 49.3797H1688L1766.99 0Z" fill="black"/>
<path d="M1612.99 0H1692.66L1607.98 49.3797H1534L1612.99 0Z" fill="black"/>
<path d="M1612.99 0H1692.66L1607.98 49.3797H1534L1612.99 0Z" fill="black"/>
<path d="M1150.99 0H1230.66L1145.98 49.3797H1072L1150.99 0Z" fill="black"/>
<path d="M996.993 0H1076.66L991.978 49.3797H918L996.993 0Z" fill="black"/>
<path d="M842.993 0H922.662L837.978 49.3797H764L842.993 0Z" fill="black"/>
<path d="M688.993 0H768.662L683.978 49.3797H610L688.993 0Z" fill="black"/>
<path d="M534.993 0H614.662L529.978 49.3797H456L534.993 0Z" fill="black"/>
<path d="M380.993 0H460.662L375.978 49.3797H302L380.993 0Z" fill="black"/>
<path d="M226.993 0H306.662L221.978 49.3797H148L226.993 0Z" fill="black"/>
<path d="M72.9934 0H152.662L67.9779 49.3797H-5.99998L72.9934 0Z" fill="black"/>
<path d="M1304.99 170.5H1384.66L1299.98 219.88H1226L1304.99 170.5Z" fill="black"/>
<path d="M1458.99 170.5H1538.66L1453.98 219.88H1380L1458.99 170.5Z" fill="black"/>
<path d="M1920.99 170.5H2000.66L1915.98 219.88H1842L1920.99 170.5Z" fill="black"/>
<path d="M1766.99 170.5H1846.66L1761.98 219.88H1688L1766.99 170.5Z" fill="black"/>
<path d="M1612.99 170.5H1692.66L1607.98 219.88H1534L1612.99 170.5Z" fill="black"/>
<path d="M1612.99 170.5H1692.66L1607.98 219.88H1534L1612.99 170.5Z" fill="black"/>
<path d="M1150.99 170.5H1230.66L1145.98 219.88H1072L1150.99 170.5Z" fill="black"/>
<path d="M996.993 170.5H1076.66L991.978 219.88H918L996.993 170.5Z" fill="black"/>
<path d="M842.993 170.5H922.662L837.978 219.88H764L842.993 170.5Z" fill="black"/>
<path d="M688.993 170.5H768.662L683.978 219.88H610L688.993 170.5Z" fill="black"/>
<path d="M534.993 170.5H614.662L529.978 219.88H456L534.993 170.5Z" fill="black"/>
<path d="M380.993 170.5H460.662L375.978 219.88H302L380.993 170.5Z" fill="black"/>
<path d="M226.993 170.5H306.662L221.978 219.88H148L226.993 170.5Z" fill="black"/>
<path d="M72.9934 170.5H152.662L67.9779 219.88H-5.99998L72.9934 170.5Z" fill="black"/>
</svg>
