<svg width="261" height="261" viewBox="0 0 261 261" fill="none" xmlns="http://www.w3.org/2000/svg">
<rect x="5" y="5" width="251" height="251" rx="30" fill="#FFDF00" stroke="black" stroke-width="10"/>
<path d="M144.273 150.025L140.124 147.548L134.522 150.025L128.919 152.089L123.525 150.025L119.375 147.548L115.018 150.025L117.715 155.598L119.375 164.266L120.412 176.031L116.263 187.59L107.756 199.561L95.7216 208.643L82.4425 212.771H70.2008L59.619 210.294L50.0747 205.134L43.2276 198.529L40.7378 199.561L44.68 205.134L53.3945 211.739L65.6361 219.169L77.6703 222.884H94.4767L107.756 220.82L121.657 215.867L129.957 210.294L134.522 214.215L146.348 220.82L165.229 224.948L185.148 222.884L201.125 215.867L213.366 206.785L218.138 199.561L215.234 198.529L209.009 205.134L196.145 211.739L180.168 212.771L165.229 208.643L151.95 199.561L144.273 188.828L140.124 176.031V162.202L144.273 154.566V150.025Z" fill="black"/>
<path d="M32.8533 185.526L35.7581 184.287L33.4758 172.729V163.028L35.7581 154.566L39.4929 147.548L46.5474 139.292L53.3945 134.545L60.6565 130.417L72.0682 127.94H82.4425L91.1569 130.417L99.8713 134.545L107.756 140.943L113.15 147.548L117.715 143.833V134.545L121.45 130.417L127.052 127.94V120.716L116.263 118.652L107.756 114.73L99.8713 108.745L93.8542 101.314L89.912 94.0902L87.0072 87.4853V79.8485V71.7989L88.8746 63.13L92.8168 56.1124L98.004 48.682L104.229 42.49L113.15 38.3619L121.45 35.4723V32.7891L115.018 34.2339L107.756 36.9171L99.8713 40.2196L91.1569 45.9988L82.4425 54.4612L76.8404 63.13L72.0682 72.8309L68.9559 83.7701L67.9185 95.535V104.41L58.3741 109.983L50.0747 114.73L43.2276 122.161L35.7581 131.449L30.986 142.801L28.2886 154.566V165.711L29.5336 176.031L32.8533 185.526Z" fill="black"/>
<path d="M131.617 120.716L132.654 127.94L136.804 128.765L140.124 133.306L141.991 138.673V143.833L147.386 147.548L152.78 140.324L159.005 134.545L165.229 130.417L172.491 127.94H185.148L195.315 128.765L206.312 133.306L218.138 143.833L226.023 158.074L227.268 172.935L224.57 184.7H227.268L229.343 176.031L231.417 167.982V158.074L229.343 147.548L226.023 138.673L220.006 127.94L212.951 118.652L200.917 109.983L191.788 104.41V98.0118V89.5493L190.543 81.2933L187.223 71.7989L183.903 63.13L177.264 54.4612L171.039 47.0308L165.229 42.49L157.137 38.3619L147.178 34.2339L138.049 32.1699L138.879 35.4723L147.178 38.3619L154.025 42.49L160.25 48.682L166.267 53.2228L171.039 62.3044L173.944 72.8309V83.7701L170.209 95.535L165.229 104.41L159.005 109.983L151.95 114.73L145.518 118.652L140.124 120.716H131.617Z" fill="black"/>
<path d="M151.328 175.206L145.518 177.682L146.348 182.017L148.216 186.764L151.95 190.273L157.137 187.59L161.702 184.287L168.342 179.127L173.944 172.935L178.301 167.982L181.621 159.106L183.903 152.089L185.148 144.865V137.641V131.449L180.168 132.068H174.774L170.209 134.545L171.039 140.943L170.209 147.548L168.342 154.566L165.229 160.551L161.702 165.711L157.137 171.284L151.328 175.206Z" fill="black"/>
<path d="M111.076 186.764L108.793 190.273H107.756L101.531 186.764L96.759 183.049L92.1943 179.127L87.0072 173.967L83.6874 169.426L77.6703 162.202L75.5955 155.598L74.1431 147.548V138.673L75.5955 131.449L82.4425 132.068L88.8746 133.306V140.943L89.912 147.548L92.1943 155.598L95.7216 163.028L101.531 169.426L108.793 175.206L115.018 177.682L113.773 181.191L111.076 186.764Z" fill="black"/>
<path d="M108.793 104.41L104.229 107.093L98.004 101.314L95.7216 95.535L102.569 90.5814L108.793 88.5173L115.018 86.4533L123.525 85.0085L131.617 83.7701L140.124 85.0085L150.083 87.4853L157.137 90.5814L164.192 95.535L160.25 102.346L157.137 107.093L151.328 104.41L145.518 101.314L138.879 99.0438L129.957 98.0118L121.45 99.0438L115.018 101.314L108.793 104.41Z" fill="black"/>
</svg>
