<svg width="1347" height="1310" viewBox="0 0 1347 1310" fill="none" xmlns="http://www.w3.org/2000/svg">
<circle cx="673.291" cy="636.291" r="367.896" transform="rotate(-171.248 673.291 636.291)" stroke="black" stroke-width="30"/>
<ellipse cx="673.284" cy="637.099" rx="78.0009" ry="75.0654" transform="rotate(-171.248 673.284 637.099)" fill="black"/>
<path d="M728.333 547.534L832.359 352.254C832.359 352.254 928.422 409.852 963.004 482.864C1008.57 562.459 1004.45 662.676 1004.45 662.676L781.853 644.97C781.853 644.97 780.442 610.666 770.875 591.711C760.081 570.326 728.333 547.534 728.333 547.534Z" fill="black"/>
<path d="M728.333 547.534L832.359 352.254C832.359 352.254 928.422 409.852 963.004 482.864C1008.57 562.459 1004.45 662.676 1004.45 662.676L781.853 644.97C781.853 644.97 780.442 610.666 770.875 591.711C760.081 570.326 728.333 547.534 728.333 547.534Z" fill="black"/>
<path d="M728.333 547.534L832.359 352.254C832.359 352.254 928.422 409.852 963.004 482.864C1008.57 562.459 1004.45 662.676 1004.45 662.676L781.853 644.97C781.853 644.97 780.442 610.666 770.875 591.711C760.081 570.326 728.333 547.534 728.333 547.534Z" fill="black"/>
<path d="M728.333 547.534L832.359 352.254C832.359 352.254 928.422 409.852 963.004 482.864C1008.57 562.459 1004.45 662.676 1004.45 662.676L781.853 644.97C781.853 644.97 780.442 610.666 770.875 591.711C760.081 570.326 728.333 547.534 728.333 547.534Z" fill="black"/>
<path d="M728.333 547.534L832.359 352.254C832.359 352.254 928.422 409.852 963.004 482.864C1008.57 562.459 1004.45 662.676 1004.45 662.676L781.853 644.97C781.853 644.97 780.442 610.666 770.875 591.711C760.081 570.326 728.333 547.534 728.333 547.534Z" fill="black"/>
<path d="M728.333 547.534L832.359 352.254C832.359 352.254 928.422 409.852 963.004 482.864C1008.57 562.459 1004.45 662.676 1004.45 662.676L781.853 644.97C781.853 644.97 780.442 610.666 770.875 591.711C760.081 570.326 728.333 547.534 728.333 547.534Z" stroke="black"/>
<path d="M564.882 640.955L343.753 648.506C343.753 648.506 345.602 536.514 391.541 470.059C437.692 390.804 526.542 344.262 526.542 344.262L622.504 545.887C622.504 545.887 593.502 564.261 581.87 582.024C568.747 602.064 564.882 640.955 564.882 640.955Z" fill="black"/>
<path d="M564.882 640.955L343.753 648.506C343.753 648.506 345.602 536.514 391.541 470.059C437.692 390.804 526.542 344.262 526.542 344.262L622.504 545.887C622.504 545.887 593.502 564.261 581.87 582.024C568.747 602.064 564.882 640.955 564.882 640.955Z" fill="black"/>
<path d="M564.882 640.955L343.753 648.506C343.753 648.506 345.602 536.514 391.541 470.059C437.692 390.804 526.542 344.262 526.542 344.262L622.504 545.887C622.504 545.887 593.502 564.261 581.87 582.024C568.747 602.064 564.882 640.955 564.882 640.955Z" fill="black"/>
<path d="M564.882 640.955L343.753 648.506C343.753 648.506 345.602 536.514 391.541 470.059C437.692 390.804 526.542 344.262 526.542 344.262L622.504 545.887C622.504 545.887 593.502 564.261 581.87 582.024C568.747 602.064 564.882 640.955 564.882 640.955Z" fill="black"/>
<path d="M564.882 640.955L343.753 648.506C343.753 648.506 345.602 536.514 391.541 470.059C437.692 390.804 526.542 344.262 526.542 344.262L622.504 545.887C622.504 545.887 593.502 564.261 581.87 582.024C568.747 602.064 564.882 640.955 564.882 640.955Z" fill="black"/>
<path d="M564.882 640.955L343.753 648.506C343.753 648.506 345.602 536.514 391.541 470.059C437.692 390.804 526.542 344.262 526.542 344.262L622.504 545.887C622.504 545.887 593.502 564.261 581.87 582.024C568.747 602.064 564.882 640.955 564.882 640.955Z" stroke="black"/>
<path d="M730.224 728.52L847.328 916.249C847.328 916.249 749.415 970.643 668.894 964.086C577.182 963.746 492.45 910.071 492.45 910.071L619.082 726.152C619.082 726.152 649.495 742.082 670.694 743.274C694.611 744.618 730.224 728.52 730.224 728.52Z" fill="black"/>
<path d="M730.224 728.52L847.328 916.249C847.328 916.249 749.415 970.643 668.894 964.086C577.182 963.746 492.45 910.071 492.45 910.071L619.082 726.152C619.082 726.152 649.495 742.082 670.694 743.274C694.611 744.618 730.224 728.52 730.224 728.52Z" fill="black"/>
<path d="M730.224 728.52L847.328 916.249C847.328 916.249 749.415 970.643 668.894 964.086C577.182 963.746 492.45 910.071 492.45 910.071L619.082 726.152C619.082 726.152 649.495 742.082 670.694 743.274C694.611 744.618 730.224 728.52 730.224 728.52Z" fill="black"/>
<path d="M730.224 728.52L847.328 916.249C847.328 916.249 749.415 970.643 668.894 964.086C577.182 963.746 492.45 910.071 492.45 910.071L619.082 726.152C619.082 726.152 649.495 742.082 670.694 743.274C694.611 744.618 730.224 728.52 730.224 728.52Z" fill="black"/>
<path d="M730.224 728.52L847.328 916.249C847.328 916.249 749.415 970.643 668.894 964.086C577.182 963.746 492.45 910.071 492.45 910.071L619.082 726.152C619.082 726.152 649.495 742.082 670.694 743.274C694.611 744.618 730.224 728.52 730.224 728.52Z" fill="black"/>
<path d="M730.224 728.52L847.328 916.249C847.328 916.249 749.415 970.643 668.894 964.086C577.182 963.746 492.45 910.071 492.45 910.071L619.082 726.152C619.082 726.152 649.495 742.082 670.694 743.274C694.611 744.618 730.224 728.52 730.224 728.52Z" stroke="black"/>
</svg>
