<svg width="266" height="266" viewBox="0 0 266 266" fill="none" xmlns="http://www.w3.org/2000/svg">
<rect x="5" y="5" width="255.928" height="255.928" rx="30" fill="#FFDF00" stroke="black" stroke-width="10"/>
<path d="M105.771 34.0229V129.635C105.771 133.792 104.476 137.846 102.065 141.233L60.4721 199.666C51.0473 212.907 60.5134 231.264 76.7659 231.264H187.234C203.992 231.264 213.32 211.889 202.867 198.79L157.154 141.499C154.327 137.956 152.787 133.558 152.787 129.025V34.0229" stroke="black" stroke-width="12" stroke-linecap="round"/>
<path d="M108.316 49.8027H123.231" stroke="black" stroke-width="12" stroke-linecap="round"/>
<path d="M108.316 72.3447H123.271" stroke="black" stroke-width="12" stroke-linecap="round"/>
<path d="M108.316 96.3896H125.414" stroke="black" stroke-width="12" stroke-linecap="round"/>
<path d="M179.566 191.28C170.379 179.392 127.147 164.26 114.718 164.26C102.289 164.26 96.8845 174.528 88.7784 184.795C80.6723 195.063 81.7531 193.982 78.5107 198.306C75.2683 202.629 71.2068 207.113 73.6471 212.356C75.8902 217.176 79.6794 217.76 84.9956 217.76H114.718H146.602H181.728C186.953 217.76 190.915 214.518 189.834 209.654C188.12 201.94 188.753 203.169 179.566 191.28Z" fill="black" stroke="black" stroke-width="10"/>
</svg>
